<svg width="708" height="466" viewBox="0 0 708 466" fill="none" xmlns="http://www.w3.org/2000/svg">
<path d="M291.599 436.357H609.394C632.156 436.357 680.457 359.602 622.002 315.241C540.659 253.514 462.191 295.273 257.937 213.066C92.8358 146.619 78.4629 404.055 158.434 436.357H291.599Z" fill="#CDECE9"/>
<path d="M154.173 364.217C150.076 339.25 145.274 314.357 139.394 289.747C133.877 266.644 127.052 243.734 116.868 222.218C114.41 217.028 111.795 211.877 108.875 206.93C106.482 202.877 101.819 198.162 96.7028 201.007C92.3447 203.431 90.7235 209.806 90.0785 214.343C89.294 219.878 89.7124 225.517 90.4402 231.035C92.0658 243.381 95.8355 255.305 99.736 267.089C103.358 278.028 107.28 288.871 111.638 299.539C121.461 323.574 133.485 346.763 149.026 367.625C150.307 369.347 152.992 368.179 152.835 366.532C153.676 366.183 154.356 365.346 154.168 364.213L154.173 364.217Z" fill="#378182"/>
<path d="M159.31 373.387C153.914 362.967 148.371 352.625 142.679 342.366C137.275 332.626 131.784 322.929 126.014 313.403C120.51 304.312 114.714 295.382 108.373 286.849C102.101 278.412 95.2809 270.362 87.7501 263.014C84.146 259.502 80.4242 255.985 76.1533 253.292C74.1006 251.997 71.9216 250.925 69.6031 250.202C67.2149 249.461 64.4649 248.968 62.1333 250.158C58.5641 251.98 57.7143 256.53 57.9191 260.177C58.2198 265.516 60.1984 270.746 62.5038 275.513C67.1408 285.106 73.168 294.092 79.631 302.542C86.0897 310.984 93.1716 318.929 100.554 326.568C107.945 334.212 115.585 341.656 123.53 348.725C131.392 355.724 139.677 362.287 148.676 367.77C150.567 368.92 152.489 370.018 154.437 371.069C154.477 371.313 154.651 371.522 154.912 371.57C155.575 371.692 156.233 371.818 156.895 371.94C156.996 371.958 157.1 371.945 157.196 371.91C157.527 372.546 157.863 373.178 158.19 373.814C158.538 374.485 159.658 374.076 159.305 373.391L159.31 373.387Z" fill="#378182"/>
<path d="M182.884 235.977C181.764 228.402 179.885 217.442 170.459 216.627C162.497 215.934 154.177 221.416 148.926 226.916C135.647 240.827 134.165 261.641 135.381 279.858C136.662 299.073 141.547 317.734 147.047 336.138C145.483 338.335 143.805 340.453 141.983 342.466C140.266 344.358 143.073 347.182 144.794 345.277C146.084 343.852 147.309 342.379 148.472 340.871C149.183 343.203 149.898 345.53 150.612 347.857C151.362 350.298 155.201 349.256 154.447 346.798C153.428 343.482 165.133 309.362 170.755 295.281C174.634 285.567 178.966 275.871 181.489 265.69C183.899 255.972 184.348 245.878 182.884 235.977Z" fill="#378182"/>
<path d="M186.628 361.333V389.73C186.628 407.89 174.804 428.818 158.436 436.362H132.915C116.546 428.822 104.727 407.895 104.727 389.73V361.333H186.628Z" fill="#51B0B0"/>
<path d="M142.207 360.129C143.685 358.922 145.158 357.702 146.626 356.473C139.95 348.689 132.118 342.143 123.48 337.275C98.8443 323.386 56.9762 305.383 33.3467 331.471C29.346 335.885 26.9098 342.68 31.2897 347.643C44.5383 362.666 72.2992 352.516 88.4285 351.831C97.7722 351.435 107.059 350.925 116.39 352.041C120.848 352.577 125.28 353.427 129.608 354.738C131.042 355.174 141.728 360.521 142.211 360.125L142.207 360.129Z" fill="#378182"/>
<path d="M142.352 356.343C141.406 353.266 135.335 351.728 132.925 351.431C105.33 348.084 73.5335 348.768 55.1686 373.047C51.0023 378.556 47.9865 386.374 52.2051 392.759C56.2668 398.904 64.4339 399.226 70.8054 397.221C78.3884 394.833 85.3396 390.34 92.0031 386.113C98.6099 381.925 105.095 377.545 111.872 373.636C115.685 371.439 119.585 369.378 123.634 367.648C128.977 365.364 135.087 364.37 139.907 361.01C140.691 360.461 141.454 359.834 141.929 359.005C142.5 358.016 142.592 357.132 142.348 356.343H142.352Z" fill="#378182"/>
<path d="M89.1513 352.59C96.0807 350.65 103.237 349.582 110.427 349.408C117.618 349.229 124.827 349.927 131.843 351.5C135.818 352.389 139.722 353.561 143.531 355C144.25 355.27 144.56 354.119 143.85 353.849C137.016 351.269 129.873 349.574 122.621 348.754C115.391 347.935 108.065 348.014 100.857 348.977C96.7954 349.521 92.7816 350.341 88.8375 351.443C88.101 351.648 88.4148 352.803 89.1557 352.594L89.1513 352.59Z" fill="#474747"/>
<path d="M99.4595 327.079C106.367 334.727 114.49 341.373 123.176 346.908C125.573 348.438 128.031 349.871 130.546 351.192C131.225 351.549 131.827 350.521 131.147 350.163C122.056 345.396 113.636 339.212 106.153 332.191C104.123 330.286 102.166 328.303 100.301 326.238C99.7863 325.667 98.9452 326.512 99.4551 327.083L99.4595 327.079Z" fill="#474747"/>
<path d="M105.22 283.381C110.302 290.964 115.004 298.796 119.301 306.845C123.577 314.851 127.455 323.066 130.911 331.455C132.868 336.205 134.685 341.012 136.372 345.863C136.62 346.582 137.775 346.272 137.523 345.545C134.52 336.903 131.086 328.413 127.242 320.115C123.394 311.809 119.127 303.694 114.464 295.815C111.849 291.391 109.108 287.046 106.249 282.78C105.822 282.143 104.789 282.74 105.22 283.381Z" fill="#474747"/>
<path d="M97.4397 201.767C100.072 207.541 102.63 213.346 105.11 219.186C107.594 225.039 109.995 230.927 112.314 236.845C114.641 242.781 116.89 248.751 119.056 254.748C121.213 260.714 123.287 266.711 125.279 272.738C127.271 278.761 129.184 284.814 131.014 290.89C131.241 291.648 131.472 292.411 131.699 293.169C131.916 293.901 133.071 293.592 132.849 292.851C131.032 286.741 129.127 280.652 127.144 274.59C125.161 268.528 123.096 262.497 120.947 256.491C118.799 250.486 116.567 244.511 114.257 238.567C111.948 232.622 109.555 226.713 107.084 220.834C104.617 214.968 102.072 209.132 99.4488 203.331C99.1219 202.608 98.795 201.889 98.4638 201.166C98.1457 200.468 97.1172 201.074 97.4353 201.767H97.4397Z" fill="#474747"/>
<path d="M91.4516 235.999C98.4768 240.13 105.506 244.262 112.532 248.397C114.393 249.491 116.249 250.585 118.11 251.679C118.772 252.071 119.374 251.038 118.711 250.651C111.686 246.519 104.657 242.388 97.6314 238.252C95.7705 237.158 93.9139 236.064 92.053 234.97C91.3906 234.578 90.7892 235.611 91.4516 235.999Z" fill="#474747"/>
<path d="M90.3344 228.511C96.6101 232.203 102.886 235.894 109.157 239.581C110.909 240.609 112.661 241.642 114.408 242.671C115.071 243.063 115.672 242.03 115.01 241.642C108.734 237.951 102.459 234.26 96.1873 230.573C94.4354 229.544 92.6834 228.511 90.9358 227.483C90.2734 227.091 89.672 228.124 90.3344 228.511Z" fill="#474747"/>
<path d="M62.9464 250.721C67.3524 257.432 71.85 264.078 76.4347 270.668C81.0455 277.288 85.7522 283.846 90.5418 290.344C95.3139 296.816 100.177 303.222 105.124 309.563C110.105 315.957 115.178 322.28 120.334 328.534C125.424 334.71 130.597 340.815 135.857 346.847C136.511 347.596 137.169 348.346 137.823 349.096C138.328 349.675 139.169 348.825 138.668 348.25C133.395 342.24 128.204 336.161 123.097 330.007C117.963 323.823 112.912 317.569 107.948 311.246C102.967 304.9 98.0682 298.49 93.2612 292.013C88.4673 285.555 83.7606 279.035 79.141 272.454C74.5476 265.904 70.0414 259.289 65.6266 252.616C65.0775 251.784 64.5284 250.952 63.9836 250.119C63.5653 249.479 62.5324 250.076 62.9551 250.721H62.9464Z" fill="#474747"/>
<path d="M89.3175 286.561C90.9125 281.005 92.5119 275.444 94.107 269.887C94.3205 269.146 93.17 268.832 92.9564 269.569C91.3614 275.126 89.762 280.686 88.1669 286.243C87.9534 286.984 89.1039 287.298 89.3175 286.561Z" fill="#474747"/>
<path d="M85.2393 281.38C86.7647 276.067 88.2944 270.75 89.8197 265.438C90.0332 264.697 88.8827 264.383 88.6691 265.12C87.1438 270.432 85.6141 275.749 84.0888 281.062C83.8753 281.802 85.0258 282.116 85.2393 281.38Z" fill="#474747"/>
<path d="M30.3053 342.358C39.4311 337.682 49.3108 334.522 59.4042 332.775C69.7851 330.979 80.4493 330.696 90.9087 331.994C96.8618 332.731 102.75 334.008 108.467 335.812C109.2 336.043 109.518 334.893 108.786 334.662C98.5092 331.424 87.7055 329.911 76.9411 330.007C66.3553 330.099 55.7564 331.716 45.6413 334.858C40.1589 336.557 34.8115 338.715 29.7039 341.334C29.0196 341.682 29.6211 342.715 30.3053 342.362V342.358Z" fill="#474747"/>
<path d="M58.0127 394.354C61.3292 389.682 65.1077 385.346 69.2174 381.358C73.4447 377.257 78.025 373.527 82.8799 370.197C87.8264 366.802 93.0517 363.817 98.4949 361.293C103.908 358.783 109.538 356.744 115.313 355.24C121.048 353.75 126.927 352.8 132.845 352.503C133.573 352.468 134.305 352.442 135.033 352.425C135.8 352.407 135.804 351.213 135.033 351.231C129.036 351.374 123.061 352.176 117.222 353.54C111.316 354.922 105.555 356.883 100.003 359.311C94.455 361.738 89.1163 364.64 84.0566 367.97C79.0405 371.269 74.2858 374.982 69.8929 379.07C65.6219 383.045 61.6953 387.381 58.2089 392.061C57.7905 392.619 57.3852 393.186 56.9799 393.752C56.5354 394.38 57.5682 394.977 58.0084 394.354H58.0127Z" fill="#474747"/>
<path d="M91.0749 364.244C89.3273 370.458 87.985 376.786 87.0741 383.18C86.817 384.98 86.5904 386.788 86.3986 388.597C86.3158 389.359 87.51 389.355 87.5928 388.597C88.46 380.473 90.0158 372.428 92.2298 364.562C92.4389 363.821 91.2884 363.507 91.0792 364.244H91.0749Z" fill="#474747"/>
<path d="M97.9929 360.962C95.9185 368.572 94.4629 376.342 93.6174 384.187C93.5346 384.949 94.7287 384.945 94.8115 384.187C95.6439 376.451 97.0995 368.79 99.1434 361.281C99.3439 360.54 98.1934 360.222 97.9929 360.962Z" fill="#474747"/>
<path d="M52.6222 320.737C58.3313 323.535 63.683 327.021 68.5335 331.131C69.1175 331.623 69.963 330.787 69.379 330.285C64.45 326.11 59.0286 322.546 53.228 319.704C52.5394 319.369 51.9336 320.397 52.6266 320.733L52.6222 320.737Z" fill="#474747"/>
<path d="M60.1813 319.452C66.3915 322.494 72.2183 326.29 77.4915 330.761C78.0755 331.253 78.921 330.417 78.337 329.916C72.9853 325.379 67.0888 321.504 60.7827 318.419C60.0941 318.083 59.4883 319.112 60.1813 319.447V319.452Z" fill="#474747"/>
<path d="M236.566 373.818L212.069 426.629C211.651 427.527 211.438 428.508 211.438 429.497C211.438 433.262 214.488 436.313 218.254 436.313H298.66C300.957 436.313 302.822 434.452 302.822 432.151C302.822 429.854 300.961 427.989 298.66 427.989H278.321L303.45 373.81H236.566V373.818Z" fill="#474747"/>
<path d="M277.81 426.582H223.591C222.824 426.582 222.824 427.776 223.591 427.776H277.81C278.577 427.776 278.577 426.582 277.81 426.582Z" fill="#777777"/>
<path d="M128.916 172.366H353.221C357.924 172.366 361.859 175.931 362.325 180.607L381.37 371.596C381.906 376.982 377.679 381.65 372.266 381.65H147.96C143.258 381.65 139.323 378.085 138.856 373.409L119.812 182.42C119.275 177.034 123.503 172.366 128.916 172.366Z" fill="#474747"/>
<path d="M136.962 172.366H361.268C365.971 172.366 369.906 175.931 370.372 180.607L389.417 371.596C389.953 376.982 385.726 381.65 380.313 381.65H156.007C151.305 381.65 147.37 378.085 146.903 373.409L127.858 182.42C127.322 177.034 131.55 172.366 136.962 172.366Z" fill="#474747"/>
<path d="M152.755 380.422C149.622 379.04 147.778 376.247 147.447 372.896C147.343 371.867 147.242 370.834 147.138 369.806C146.698 365.369 146.253 360.933 145.813 356.496C145.116 349.497 144.418 342.498 143.721 335.499C142.858 326.848 141.995 318.193 141.132 309.542C140.173 299.933 139.215 290.323 138.256 280.709C137.293 271.052 136.33 261.398 135.367 251.741C134.477 242.824 133.588 233.903 132.699 224.987C131.963 217.622 131.231 210.252 130.494 202.887C129.997 197.888 129.496 192.885 128.999 187.886C128.803 185.917 128.52 183.938 128.42 181.959C128.237 178.264 130.455 174.982 133.824 173.553C134.53 173.252 133.92 172.223 133.222 172.524C129.191 174.237 126.868 178.334 127.287 182.661C127.369 183.515 127.457 184.365 127.539 185.219C127.962 189.46 128.385 193.704 128.808 197.945C129.492 204.822 130.18 211.703 130.865 218.58C131.732 227.266 132.595 235.947 133.462 244.633C134.43 254.317 135.393 264 136.36 273.684C137.336 283.455 138.308 293.226 139.284 302.996C140.187 312.048 141.089 321.1 141.991 330.147C142.736 337.639 143.486 345.126 144.231 352.617C144.736 357.703 145.246 362.793 145.752 367.879C145.952 369.875 146.079 371.897 146.362 373.885C146.841 377.24 149.064 380.095 152.154 381.455C152.851 381.76 153.457 380.736 152.755 380.426V380.422Z" fill="#777777"/>
<path d="M143.892 185.014H356.392C359.865 185.014 362.776 187.646 363.12 191.106L379.18 352.172C379.577 356.151 376.452 359.607 372.451 359.607H159.951C156.478 359.607 153.567 356.975 153.222 353.514L137.163 192.449C136.766 188.47 139.891 185.014 143.892 185.014Z" fill="white"/>
<path d="M372.451 359.603H159.951C156.478 359.603 153.567 356.97 153.227 353.514L150.355 324.734L137.163 192.444C136.766 188.465 139.891 185.014 143.892 185.014H356.387C359.865 185.014 362.772 187.646 363.116 191.102L376.443 324.729L379.18 352.168C379.572 356.151 376.447 359.603 372.451 359.603Z" fill="white"/>
<path d="M372.451 359.603H159.951C156.478 359.603 153.566 356.971 153.227 353.515L150.355 324.734L150.25 323.701H376.343L376.447 324.734L379.184 352.172C379.576 356.156 376.452 359.607 372.455 359.607L372.451 359.603Z" fill="#777777"/>
<path d="M139.189 202.094H362.915C363.682 202.094 363.682 200.899 362.915 200.899H139.189C138.422 200.899 138.422 202.094 139.189 202.094Z" fill="#CDECE9"/>
<path d="M174.741 201.496C174.279 196.846 173.847 191.764 170.892 187.925C170.012 186.779 168.936 185.82 167.694 185.083C167.031 184.691 166.43 185.724 167.092 186.112C171.232 188.57 172.57 193.447 173.167 197.922C173.324 199.108 173.438 200.298 173.555 201.492C173.629 202.25 174.823 202.254 174.749 201.492L174.741 201.496Z" fill="#CDECE9"/>
<path d="M210.276 201.496C209.814 196.846 209.382 191.764 206.428 187.925C205.547 186.779 204.471 185.82 203.229 185.083C202.566 184.691 201.965 185.724 202.627 186.112C206.768 188.57 208.106 193.447 208.703 197.922C208.859 199.108 208.973 200.298 209.09 201.492C209.165 202.25 210.359 202.254 210.285 201.492L210.276 201.496Z" fill="#CDECE9"/>
<path d="M245.448 201.496C244.986 196.846 244.554 191.764 241.6 187.925C240.719 186.779 239.643 185.82 238.401 185.083C237.738 184.691 237.137 185.724 237.799 186.112C241.939 188.57 243.277 193.447 243.874 197.922C244.031 199.108 244.145 200.298 244.262 201.492C244.336 202.25 245.531 202.254 245.456 201.492L245.448 201.496Z" fill="#CDECE9"/>
<path d="M246.687 244.432H161.008C159.678 244.432 158.345 244.432 157.016 244.432C154.871 244.427 152.884 243.469 151.485 241.847C149.398 239.429 149.062 235.559 151.455 233.218C152.61 232.09 154.135 231.619 155.726 231.619H244.726C245.389 231.619 246.042 231.623 246.7 231.767C249.952 232.486 252.51 235.511 252.431 238.879C252.362 242.039 249.803 244.397 246.692 244.427C245.925 244.436 245.92 245.63 246.692 245.621C250 245.587 252.954 243.325 253.517 240C254.092 236.591 252.244 233.157 249.267 231.484C247.951 230.743 246.504 230.425 245.005 230.425H160.119C158.646 230.425 157.177 230.425 155.704 230.425C153.934 230.425 152.248 230.948 150.897 232.116C148.321 234.334 147.999 238.143 149.52 241.054C150.945 243.778 153.843 245.604 156.924 245.626C157.242 245.626 157.565 245.626 157.883 245.626H246.692C247.459 245.626 247.459 244.432 246.692 244.432H246.687Z" fill="#CDECE9"/>
<path d="M165.922 214.257C166.079 216.075 165.194 217.857 163.429 218.524C161.586 219.221 159.507 218.537 158.191 217.134C156.91 215.765 156.356 213.617 157.237 211.887C158.078 210.235 159.943 209.437 161.738 209.79C163.896 210.217 165.674 212.048 165.922 214.253C166.009 215.007 167.203 215.016 167.116 214.253C166.837 211.791 165.186 209.694 162.845 208.858C160.631 208.064 158.06 208.692 156.635 210.601C155.188 212.54 155.371 215.29 156.74 217.221C158.143 219.204 160.575 220.337 162.998 219.879C165.639 219.378 167.347 216.877 167.121 214.253C167.055 213.495 165.861 213.486 165.927 214.253L165.922 214.257Z" fill="#CDECE9"/>
<path d="M158.378 218.231C157.651 219.622 156.927 221.012 156.199 222.402C156.051 222.69 156.125 223.051 156.413 223.217C156.683 223.374 157.08 223.291 157.228 223.003C157.956 221.613 158.679 220.223 159.407 218.833C159.555 218.545 159.481 218.183 159.193 218.018C158.923 217.861 158.527 217.944 158.378 218.231Z" fill="#CDECE9"/>
<path d="M353.16 193.22C353.369 195.334 351.83 197.043 349.717 197.043C347.603 197.043 345.72 195.33 345.511 193.22C345.302 191.107 346.84 189.398 348.954 189.398C351.068 189.398 352.946 191.111 353.16 193.22Z" fill="#CDECE9"/>
<path d="M337.742 193.22C337.951 195.334 336.412 197.043 334.299 197.043C332.185 197.043 330.307 195.33 330.093 193.22C329.884 191.107 331.422 189.398 333.536 189.398C335.65 189.398 337.528 191.111 337.742 193.22Z" fill="#CDECE9"/>
<path d="M299.163 381.054H233.591C232.824 381.054 232.824 382.248 233.591 382.248H299.163C299.93 382.248 299.93 381.054 299.163 381.054Z" fill="#777777"/>
<path d="M328.685 367.569H370.64C371.651 367.569 372.492 368.336 372.592 369.339L375.734 400.861C375.848 402.016 374.941 403.018 373.782 403.018H331.827C330.816 403.018 329.975 402.251 329.874 401.249L326.732 369.727C326.619 368.572 327.525 367.569 328.685 367.569Z" fill="white"/>
<path d="M336.243 378.059H364.392C365.159 378.059 365.159 376.865 364.392 376.865H336.243C335.476 376.865 335.476 378.059 336.243 378.059Z" fill="#474747"/>
<path d="M336.962 385.891H365.111C365.878 385.891 365.878 384.697 365.111 384.697H336.962C336.195 384.697 336.195 385.891 336.962 385.891Z" fill="#474747"/>
<path d="M344.739 393.727H359.552C360.319 393.727 360.319 392.533 359.552 392.533H344.739C343.972 392.533 343.972 393.727 344.739 393.727Z" fill="#474747"/>
<path d="M276.61 372.459H318.566C319.577 372.459 320.418 373.222 320.518 374.228L323.66 405.75C323.774 406.905 322.867 407.908 321.708 407.908H279.753C278.742 407.908 277.9 407.141 277.8 406.138L274.658 374.616C274.545 373.461 275.451 372.459 276.61 372.459Z" fill="#F37B06"/>
<path d="M284.548 382.948H312.697C313.464 382.948 313.464 381.754 312.697 381.754H284.548C283.781 381.754 283.781 382.948 284.548 382.948Z" fill="#474747"/>
<path d="M285.263 390.781H301.671C302.438 390.781 302.438 389.587 301.671 389.587H285.263C284.496 389.587 284.496 390.781 285.263 390.781Z" fill="#474747"/>
<path d="M242.842 351.665C247.394 348.736 248.265 341.979 244.788 336.572C241.31 331.165 234.8 329.156 230.247 332.084C225.695 335.013 224.823 341.77 228.301 347.177C231.779 352.584 238.289 354.593 242.842 351.665Z" fill="white"/>
<path d="M270.726 351.847C275.365 349.025 276.416 342.282 273.072 336.785C269.729 331.288 263.258 329.12 258.619 331.941C253.98 334.763 252.929 341.507 256.272 347.003C259.616 352.5 266.087 354.669 270.726 351.847Z" fill="white"/>
<path d="M299.804 351.673C304.363 348.74 305.236 341.975 301.754 336.562C298.272 331.149 291.754 329.138 287.196 332.071C282.637 335.003 281.764 341.768 285.246 347.181C288.727 352.594 295.245 354.605 299.804 351.673Z" fill="white"/>
<path d="M259.974 342.154C260.092 342.743 260.262 343.37 260.619 343.863C260.928 344.29 261.36 344.617 261.848 344.817C262.698 345.166 263.678 345.022 264.58 345.039C264.903 345.044 265.177 344.76 265.177 344.442C265.177 344.124 264.903 343.854 264.58 343.845C264.28 343.841 263.983 343.845 263.683 343.845C263.404 343.845 263.125 343.854 262.846 343.832C262.789 343.828 262.728 343.823 262.672 343.815C262.802 343.832 262.619 343.802 262.593 343.797C262.493 343.776 262.388 343.749 262.292 343.715C262.262 343.701 262.14 343.64 262.266 343.706C262.227 343.684 262.188 343.667 262.149 343.649C262.057 343.601 261.974 343.54 261.891 343.484C262.014 343.566 261.891 343.479 261.87 343.462C261.835 343.431 261.8 343.401 261.765 343.366C261.726 343.331 261.695 343.292 261.656 343.257C261.552 343.152 261.691 343.322 261.626 343.222C261.355 342.791 261.242 342.407 261.129 341.836C261.068 341.518 260.689 341.339 260.397 341.418C260.065 341.509 259.917 341.836 259.978 342.15L259.974 342.154Z" fill="#474747"/>
<path d="M267.628 341.998C267.624 342.107 267.619 342.22 267.611 342.329C267.611 342.373 267.606 342.416 267.602 342.46C267.602 342.477 267.585 342.643 267.593 342.56C267.602 342.477 267.585 342.612 267.58 342.63C267.571 342.678 267.563 342.726 267.55 342.774C267.537 342.821 267.524 342.869 267.51 342.913C267.506 342.926 267.458 343.057 267.489 342.978C267.519 342.904 267.463 343.026 267.454 343.044C267.432 343.087 267.406 343.135 267.375 343.174C267.371 343.183 267.266 343.314 267.341 343.227C267.306 343.27 267.266 343.314 267.223 343.358C267.188 343.392 267.157 343.423 267.123 343.453C267.092 343.48 267.027 343.532 267.096 343.484C267.009 343.554 266.909 343.615 266.813 343.667C266.77 343.689 266.73 343.711 266.687 343.732C266.648 343.75 266.652 343.75 266.696 343.732C266.669 343.741 266.643 343.754 266.613 343.763C266.512 343.798 266.408 343.824 266.303 343.846C266.129 343.885 266.404 343.846 266.229 343.854C266.181 343.854 266.129 343.859 266.081 343.859C265.968 343.859 265.85 343.859 265.737 343.859C265.353 343.859 264.97 343.846 264.582 343.841C264.268 343.837 263.972 344.12 263.985 344.438C263.998 344.765 264.246 345.027 264.582 345.035C265.575 345.053 266.63 345.184 267.519 344.643C267.959 344.377 268.347 343.985 268.556 343.51C268.77 343.026 268.809 342.512 268.831 341.989C268.844 341.675 268.548 341.379 268.234 341.392C267.898 341.405 267.65 341.654 267.637 341.989L267.628 341.998Z" fill="#474747"/>
<path d="M264.251 342.922C262.852 342.922 261.632 341.972 261.493 340.751L261.013 336.502C260.948 335.931 261.127 335.369 261.51 334.916C261.968 334.38 262.682 334.053 263.462 334.018C264.94 333.961 266.212 334.907 266.356 336.184L266.836 340.433C266.901 341.004 266.722 341.566 266.339 342.015C265.881 342.551 265.166 342.882 264.382 342.917C264.338 342.917 264.291 342.917 264.247 342.917L264.251 342.922ZM263.602 335.208C263.576 335.208 263.545 335.208 263.519 335.208C263.066 335.23 262.665 335.404 262.421 335.692C262.303 335.831 262.168 336.062 262.203 336.367L262.682 340.616C262.752 341.252 263.51 341.771 264.338 341.723C264.792 341.701 265.193 341.527 265.437 341.239C265.554 341.1 265.689 340.869 265.655 340.564L265.175 336.315C265.105 335.7 264.395 335.203 263.602 335.203V335.208Z" fill="#474747"/>
<path d="M264.097 344.548C264.197 345.411 264.293 346.269 264.393 347.132C264.411 347.294 264.445 347.433 264.567 347.555C264.672 347.66 264.842 347.738 264.99 347.729C265.282 347.716 265.626 347.463 265.587 347.132C265.487 346.269 265.391 345.411 265.291 344.548C265.273 344.387 265.239 344.247 265.117 344.125C265.012 344.021 264.842 343.942 264.694 343.951C264.402 343.964 264.058 344.217 264.097 344.548Z" fill="#474747"/>
<path d="M262.882 348.373C264.329 348.408 265.776 348.443 267.227 348.478C267.55 348.486 267.824 348.199 267.824 347.881C267.824 347.562 267.55 347.292 267.227 347.283C265.78 347.249 264.333 347.214 262.882 347.179C262.56 347.17 262.285 347.458 262.285 347.776C262.285 348.094 262.56 348.364 262.882 348.373Z" fill="#474747"/>
<path d="M238.138 347.788H238.108C237.188 347.78 236.247 347.435 235.589 346.856C234.735 346.11 234.225 345.139 233.776 344.284C233.689 344.114 233.602 343.949 233.51 343.788C233 342.859 232.521 341.909 232.081 340.968L232.002 340.802C231.61 339.966 231.205 339.103 231.357 338.187C231.505 337.342 231.989 336.614 232.691 336.183C233.288 335.817 234.011 335.442 234.861 335.438C234.996 335.438 235.175 335.446 235.367 335.529C235.885 335.751 236.129 336.34 236.295 336.723C236.325 336.793 236.347 336.854 236.373 336.897C236.426 336.998 236.495 337.12 236.574 337.255C236.949 337.895 237.371 338.623 237.14 339.246C237.04 339.521 236.822 339.73 236.526 339.83L235.89 340.053L237.537 343.134C237.89 343.012 238.317 342.864 238.343 342.851C238.779 342.698 239.411 342.724 239.982 343.709C240.304 344.267 240.605 344.838 240.871 345.404L240.901 345.465C241.045 345.771 241.246 346.189 241.102 346.603C240.954 347.034 240.522 347.196 240.265 347.287L240.187 347.318C239.611 347.54 238.931 347.78 238.134 347.78L238.138 347.788ZM234.887 336.623C234.887 336.623 234.887 336.632 234.865 336.632C234.316 336.632 233.798 336.906 233.318 337.198C232.904 337.455 232.625 337.874 232.534 338.388C232.442 338.933 232.752 339.595 233.083 340.292L233.161 340.462C233.588 341.382 234.059 342.306 234.556 343.212C234.647 343.382 234.739 343.552 234.831 343.731C235.249 344.528 235.685 345.356 236.369 345.958C236.813 346.346 237.48 346.59 238.112 346.594C238.722 346.599 239.254 346.407 239.751 346.215L239.855 346.176C239.855 346.176 239.886 346.167 239.899 346.158C239.873 346.097 239.842 346.032 239.821 345.988L239.79 345.919C239.542 345.383 239.258 344.842 238.949 344.315C238.827 344.101 238.744 344.023 238.709 343.992C238.626 344.023 238.343 344.119 237.445 344.433L236.962 344.603L234.177 339.39L235.985 338.758C235.911 338.51 235.654 338.065 235.537 337.861C235.445 337.704 235.362 337.556 235.301 337.438C235.271 337.372 235.231 337.29 235.192 337.194C235.131 337.046 234.983 336.693 234.878 336.623H234.887Z" fill="#474747"/>
<path d="M289.074 343.439C288.29 343.439 287.553 342.746 287.431 341.896C287.309 341.042 287.845 340.354 288.63 340.354C289.414 340.354 290.151 341.046 290.273 341.896C290.395 342.75 289.859 343.439 289.074 343.439Z" fill="#474747"/>
<path d="M293.711 343.439C292.927 343.439 292.19 342.746 292.068 341.896C291.946 341.042 292.482 340.354 293.267 340.354C294.051 340.354 294.788 341.046 294.91 341.896C295.032 342.75 294.496 343.439 293.711 343.439Z" fill="#474747"/>
<path d="M298.348 343.439C297.563 343.439 296.827 342.746 296.705 341.896C296.583 341.042 297.119 340.354 297.903 340.354C298.688 340.354 299.424 341.046 299.546 341.896C299.668 342.75 299.132 343.439 298.348 343.439Z" fill="#474747"/>
<path d="M441.4 232.565C437.634 231.619 406.796 222.872 391.234 224.969C389.813 225.16 389.373 226.816 389.53 227.967C390.841 237.542 392.153 247.121 393.465 256.695C387.207 250.494 380.77 244.475 374.15 238.657C365.072 230.673 355.667 223.068 345.975 215.838C336.871 209.048 327.427 202.59 316.907 198.179C305.541 193.412 292.475 191.708 280.129 191.494C280.129 191.494 301.213 257.301 302.455 256.804C319.356 275.409 338.675 291.634 358.823 306.621C364.388 310.762 370.023 314.81 375.702 318.798C381.376 322.781 387.019 326.913 393.055 330.338C404.033 336.575 418.162 340.336 429.785 333.45C435.921 329.815 439.94 324.398 442.69 318.236C443.169 317.246 443.618 316.262 444.036 315.307C446.825 308.918 448.477 302.189 449.24 295.269C450.896 280.29 444.389 240.095 441.386 232.56L441.4 232.565Z" fill="#51B0B0"/>
<path d="M308.227 307.502C305.647 313.424 303.154 318.153 299.729 323.701H191.853C177.485 271.482 171.898 236.439 171.68 229.148C171.44 221.151 176.705 207.859 181.969 202.729C191.879 193.08 201.633 191.769 215.134 189.79C230.915 187.485 247.013 188.718 262.846 189.825C282.915 191.228 302.396 192.331 311.452 213.276C314.721 220.833 316.869 229.148 318.028 237.79C321.184 261.341 317.004 287.385 308.227 307.502Z" fill="#51B0B0"/>
<path d="M280.135 191.494C276.871 225.413 260.454 257.768 260.454 257.768C255.534 228.242 245.824 199.57 241.871 188.601C248.879 188.823 255.887 189.337 262.842 189.825C268.743 190.239 274.587 190.627 280.131 191.499L280.135 191.494Z" fill="white"/>
<path d="M245.235 197.495C252.082 204.093 262.097 206.643 271.257 204.067C273.881 203.33 276.391 202.193 278.675 200.711C279.315 200.293 278.718 199.26 278.073 199.683C270.346 204.703 260.345 205.248 252.151 201.008C249.929 199.857 247.885 198.393 246.081 196.654C245.527 196.122 244.682 196.963 245.235 197.499V197.495Z" fill="#474747"/>
<path d="M392.258 251.963C393.304 260.976 394.18 270.006 395.056 279.036C395.296 281.533 395.54 284.03 395.788 286.527C395.863 287.285 397.057 287.294 396.983 286.527C396.107 277.693 395.292 268.851 394.35 260.021C394.063 257.332 393.766 254.648 393.453 251.963C393.365 251.209 392.171 251.201 392.258 251.963Z" fill="#474747"/>
<path d="M434.692 264.831L354.128 262.033C350.834 261.92 348.254 259.153 348.367 255.858L352.158 146.714C352.272 143.419 355.039 140.84 358.334 140.953L438.897 143.751C442.192 143.864 444.772 146.631 444.659 149.926L440.867 259.07C440.754 262.365 437.986 264.944 434.692 264.831Z" fill="#474747"/>
<path d="M428.649 253.701L360.924 251.348C358.876 251.278 357.272 249.557 357.342 247.508L360.689 151.204C360.759 149.155 362.48 147.552 364.528 147.621L432.253 149.975C434.301 150.044 435.905 151.766 435.835 153.814L432.488 250.119C432.419 252.167 430.697 253.771 428.649 253.701Z" fill="white"/>
<path d="M417.351 152.817L379.204 151.492C377.696 151.44 376.52 150.176 376.572 148.668L376.807 141.847C376.851 140.54 377.949 139.52 379.252 139.564L418.126 140.915C419.434 140.958 420.453 142.057 420.41 143.36L420.175 150.18C420.122 151.688 418.858 152.865 417.351 152.812V152.817Z" fill="#F37B06"/>
<path d="M404.449 137.512L393.134 137.119C391.727 137.07 390.546 138.171 390.497 139.578L390.354 143.698C390.305 145.106 391.406 146.286 392.814 146.335L404.129 146.728C405.536 146.777 406.717 145.676 406.766 144.269L406.909 140.148C406.958 138.741 405.857 137.561 404.449 137.512Z" fill="#F37B06"/>
<path d="M379.778 145.195C389.009 145.517 398.239 145.835 407.465 146.158C410.102 146.249 412.739 146.341 415.375 146.432C416.142 146.458 416.142 145.264 415.375 145.238C406.145 144.916 396.914 144.597 387.688 144.275C385.052 144.183 382.415 144.092 379.778 144C379.011 143.974 379.011 145.168 379.778 145.195Z" fill="#474747"/>
<path d="M391.021 143.839C390.986 143.778 390.951 143.717 390.92 143.656C390.912 143.634 390.82 143.438 390.872 143.56C390.82 143.429 390.776 143.294 390.737 143.159C390.707 143.037 390.681 142.915 390.659 142.793C390.646 142.723 390.65 142.723 390.659 142.793C390.659 142.758 390.65 142.723 390.646 142.684C390.641 142.614 390.637 142.54 390.633 142.47C390.628 142.327 390.633 142.183 390.641 142.039C390.641 142.026 390.663 141.847 390.641 141.982C390.65 141.913 390.663 141.843 390.676 141.769C390.707 141.629 390.742 141.49 390.79 141.355C390.798 141.333 390.877 141.128 390.824 141.25C390.851 141.185 390.885 141.124 390.916 141.058C391.055 140.779 390.999 140.4 390.702 140.243C390.432 140.1 390.036 140.161 389.887 140.457C389.26 141.69 389.286 143.229 389.983 144.432C390.14 144.702 390.528 144.819 390.798 144.645C391.068 144.471 391.182 144.118 391.012 143.83L391.021 143.839Z" fill="#474747"/>
<path d="M406.986 144.994C407.77 143.834 407.857 142.305 407.317 141.032C407.195 140.744 406.746 140.657 406.502 140.819C406.201 141.01 406.158 141.324 406.288 141.633C406.236 141.507 406.315 141.708 406.319 141.729C406.341 141.795 406.363 141.86 406.38 141.925C406.397 141.991 406.415 142.061 406.428 142.126C406.432 142.152 406.467 142.37 406.45 142.222C406.485 142.501 406.48 142.775 406.458 143.054C406.45 143.124 406.45 143.124 406.458 143.054C406.454 143.089 406.45 143.124 406.441 143.159C406.428 143.229 406.415 143.294 406.402 143.364C406.371 143.499 406.332 143.629 406.284 143.76C406.275 143.782 406.193 143.982 406.249 143.856C406.223 143.917 406.193 143.978 406.162 144.039C406.101 144.157 406.031 144.274 405.957 144.383C405.783 144.641 405.901 145.055 406.171 145.198C406.471 145.36 406.798 145.259 406.986 144.985V144.994Z" fill="#474747"/>
<path d="M395.118 167.673C402.444 167.891 409.77 168.139 417.092 168.431C419.175 168.514 421.254 168.601 423.337 168.693C424.104 168.728 424.104 167.533 423.337 167.499C416.02 167.176 408.698 166.91 401.376 166.675C399.289 166.61 397.206 166.544 395.118 166.479C394.351 166.457 394.351 167.651 395.118 167.673Z" fill="#474747"/>
<path d="M370.7 166.863C375.507 167.028 380.314 167.198 385.121 167.364C385.888 167.39 385.888 166.196 385.121 166.17C380.314 166.004 375.507 165.834 370.7 165.668C369.933 165.642 369.933 166.836 370.7 166.863Z" fill="#474747"/>
<path d="M394.86 178.646C402.182 178.947 409.507 179.208 416.833 179.417C418.917 179.474 421 179.531 423.083 179.578C423.85 179.596 423.85 178.402 423.083 178.384C415.761 178.214 408.435 177.975 401.118 177.7C399.035 177.622 396.947 177.539 394.864 177.452C394.097 177.421 394.097 178.615 394.864 178.646H394.86Z" fill="#474747"/>
<path d="M370.458 177.749C375.265 177.915 380.072 178.085 384.879 178.25C385.646 178.277 385.646 177.082 384.879 177.056C380.072 176.891 375.265 176.721 370.458 176.555C369.691 176.529 369.691 177.723 370.458 177.749Z" fill="#474747"/>
<path d="M369.974 188.159C376.611 188.39 383.248 188.621 389.881 188.852C397.403 189.114 404.93 189.375 412.452 189.637C415.903 189.759 419.351 189.876 422.802 189.994C423.569 190.02 423.569 188.826 422.802 188.8C416.165 188.569 409.528 188.338 402.895 188.107C395.373 187.846 387.846 187.584 380.324 187.323C376.873 187.205 373.425 187.083 369.974 186.965C369.207 186.939 369.207 188.133 369.974 188.159Z" fill="#474747"/>
<path d="M406.907 199.047C412.032 199.208 417.153 199.396 422.274 199.618C423.041 199.653 423.041 198.459 422.274 198.424C417.153 198.201 412.028 198.01 406.907 197.853C406.14 197.831 406.14 199.021 406.907 199.047Z" fill="#474747"/>
<path d="M369.649 197.792C376.84 197.993 384.031 198.232 391.222 198.507C393.283 198.585 395.345 198.668 397.406 198.755C398.173 198.786 398.173 197.592 397.406 197.561C390.189 197.26 382.968 196.999 375.746 196.777C373.716 196.716 371.68 196.655 369.649 196.598C368.882 196.576 368.882 197.77 369.649 197.792Z" fill="#474747"/>
<path d="M406.294 209.579C411.415 209.793 416.54 209.946 421.665 210.033C422.432 210.046 422.432 208.852 421.665 208.839C416.54 208.751 411.415 208.599 406.294 208.385C405.527 208.355 405.527 209.545 406.294 209.579Z" fill="#474747"/>
<path d="M369.036 208.212C376.223 208.561 383.414 208.831 390.604 209.027C392.666 209.084 394.727 209.132 396.793 209.175C397.56 209.193 397.56 207.999 396.793 207.981C389.571 207.829 382.35 207.602 375.133 207.293C373.102 207.205 371.071 207.114 369.036 207.014C368.269 206.974 368.269 208.169 369.036 208.208V208.212Z" fill="#474747"/>
<path d="M363.206 198.738C358.094 196.363 331.737 186.235 326.01 185.049C320.946 184.003 314.875 182.491 309.828 184.321C305.056 186.056 301.043 190.296 297.443 193.726C293.298 197.674 289.393 201.863 285.476 206.038C275.997 216.144 266.518 226.246 257.039 236.352C257.039 236.352 279.823 261.725 288.095 259.202C302.529 254.796 312.862 241.748 320.955 229.061C321.085 230.177 321.517 231.258 322.367 232.247C325.09 235.415 330.638 234.261 334.168 233.402C337.864 232.504 343.416 231.009 345.944 227.967C347.299 226.338 347.474 224.337 347.107 222.324C348.271 221.587 349.308 220.72 350.115 219.356C351.444 217.107 351.801 214.423 351.339 211.873C351.187 211.028 350.929 210.213 350.603 209.424C356.791 211.298 367.512 214.449 369.534 208.94C371.221 204.347 369.238 201.544 363.197 198.734L363.206 198.738Z" fill="#C2573C"/>
<path d="M322.067 229.566C323.928 227.226 325.789 224.89 327.65 222.549C327.85 222.297 327.894 221.952 327.65 221.704C327.441 221.495 327.009 221.451 326.804 221.704C324.944 224.044 323.083 226.38 321.222 228.72C321.021 228.973 320.978 229.317 321.222 229.566C321.431 229.775 321.862 229.819 322.067 229.566Z" fill="#474747"/>
<path d="M326.81 222.55C328.998 224.533 331.478 226.18 334.162 227.409C334.454 227.544 334.803 227.492 334.977 227.196C335.126 226.938 335.056 226.516 334.764 226.381C332.171 225.191 329.769 223.622 327.656 221.704C327.089 221.19 326.239 222.031 326.81 222.55Z" fill="#474747"/>
<path d="M327.876 209.458C334.339 213.175 340.528 217.372 346.359 222.018C346.952 222.493 347.801 221.652 347.204 221.172C341.29 216.461 335.032 212.195 328.478 208.425C327.811 208.041 327.209 209.074 327.876 209.453V209.458Z" fill="#474747"/>
<path d="M335.329 199.832C340.485 202.83 345.458 206.099 350.251 209.642C350.87 210.1 351.467 209.062 350.853 208.613C346.059 205.07 341.086 201.802 335.931 198.803C335.264 198.416 334.663 199.448 335.329 199.832Z" fill="#474747"/>
<path d="M457.68 202.991C455.841 201.165 449.173 194.959 445.29 191.464C443.804 190.126 442.231 188.779 440.091 189.054C438.243 189.289 436.766 190.666 436.081 192.353C434.386 196.554 438.199 200.568 440.601 203.596C441.503 204.734 442.431 205.845 443.385 206.935C441.01 204.673 438.6 202.45 436.134 200.293C434.63 198.977 433.074 197.608 430.934 197.883C429.087 198.118 427.609 199.495 426.925 201.182C425.23 205.383 429.043 209.397 431.444 212.426C431.697 212.748 431.959 213.062 432.216 213.38C430.472 213.694 429.078 215.019 428.42 216.636C426.725 220.837 430.538 224.851 432.939 227.88C435.741 231.414 438.334 234.273 441.607 237.372L441.368 244.301C441.368 244.301 446.393 243.9 449.787 242.388C451.448 241.647 453.457 240.4 454.285 238.714C455.183 236.888 455.039 234.674 454.69 232.73C456.142 232.316 457.432 231.336 458.351 229.588C459.994 226.463 459.51 222.663 458.181 219.146C460.334 218.841 462.025 217.289 462.639 214.975C463.956 210.012 461.371 206.66 457.667 202.982L457.68 202.991Z" fill="#C2573C"/>
<path d="M432.475 214.013C437.94 218.933 443.405 223.853 448.87 228.774C450.43 230.177 451.99 231.585 453.551 232.988C454.121 233.502 454.967 232.661 454.396 232.142C448.931 227.222 443.466 222.302 438.001 217.382C436.441 215.978 434.881 214.571 433.32 213.167C432.749 212.653 431.904 213.494 432.475 214.013Z" fill="#474747"/>
<path d="M442.277 206.804C447.25 210.927 452.222 215.05 457.195 219.172C457.783 219.661 458.629 218.819 458.041 218.327C453.068 214.204 448.095 210.081 443.123 205.959C442.534 205.471 441.689 206.312 442.277 206.804Z" fill="#474747"/>
<path d="M246.656 188.778C246.656 188.778 263.683 201.112 274.997 190.678L276.33 178.864C276.33 178.864 270.922 146.828 255.948 151.922L246.661 188.778H246.656Z" fill="#C2573C"/>
<path d="M273.634 184.025C264.783 180.177 257.383 169.273 255.025 165.809C251.064 160.004 241.921 149.692 249.891 135.529C252.55 130.809 260.591 122.533 272.88 124.411C279.709 125.457 286.735 129.759 289.397 134.452C290.243 135.93 290.984 137.83 291.611 140.004C292.187 141.992 292.265 146.21 292.666 148.577C294.069 156.831 295.917 166.292 295.133 173.649C293.96 184.592 284.307 188.675 273.634 184.025Z" fill="#C2573C"/>
<path d="M283.719 146.786C283.644 144.694 281.736 143.116 279.779 142.776C277.247 142.336 273.943 143.194 272.213 145.321C269.699 148.407 271.176 151.379 273.826 150.411C275.543 149.784 276.654 149.23 278.415 149.217C279.613 149.204 280.916 149.653 281.81 149.396C282.982 149.056 283.766 148.023 283.719 146.79V146.786Z" fill="#474747"/>
<path d="M286.501 147.016C286.466 148.249 287.251 149.278 288.427 149.609C289.177 149.818 289.944 149.57 290.689 149.478C291.901 149.33 292.432 149.395 292.977 149.217C293.862 148.929 294.158 147.622 294.254 146.829C294.385 145.687 294.241 144.288 293.3 143.508C292.52 142.863 291.373 142.797 290.415 142.972C288.458 143.329 286.562 144.915 286.501 147.012V147.016Z" fill="#474747"/>
<path d="M279.707 153.474C277.205 153.561 277.558 156.856 278.02 158.172C278.321 159.031 278.94 160.029 280.069 159.976C281.72 159.898 281.808 157.832 281.733 156.73C281.655 155.501 281.341 153.413 279.703 153.47L279.707 153.474Z" fill="#474747"/>
<path d="M291.699 152.778C289.198 152.865 289.551 156.16 290.013 157.476C290.313 158.335 290.932 159.333 292.061 159.28C293.713 159.202 293.8 157.136 293.726 156.033C293.647 154.804 293.333 152.717 291.695 152.774L291.699 152.778Z" fill="#474747"/>
<path d="M292.146 165.412L280.715 166.218C280.715 166.218 282.175 171.548 286.964 171.178C292.242 170.773 292.146 165.412 292.146 165.412Z" fill="white"/>
<path d="M291.254 133.571C287.354 128.42 283.379 125.43 277.522 123.382C271.238 121.181 263.145 121.826 257.083 124.554C244.911 130.037 240.683 144.959 246.009 156.682C246.859 158.547 249.7 162.217 251.042 163.76L250.384 173.944C250.384 173.944 264.557 173.849 265.455 161.193C265.629 158.77 265.481 156.843 265.128 155.305C265.219 155.039 265.302 154.874 265.372 154.847C272.563 152.154 270.405 144.754 266.505 139.01C272.319 141.15 278.542 142.745 283.589 142.462C287.781 142.226 290.304 141.433 291.686 140.322C293.734 138.675 292.266 134.922 291.246 133.576L291.254 133.571Z" fill="#474747"/>
<path d="M253.239 137.274C253.849 138.865 254.464 140.456 255.074 142.046C255.192 142.347 255.475 142.556 255.806 142.465C256.094 142.386 256.338 142.033 256.225 141.733C255.614 140.142 255 138.551 254.39 136.961C254.272 136.66 253.989 136.451 253.658 136.542C253.37 136.621 253.126 136.974 253.239 137.274Z" fill="#777777"/>
<path d="M258.34 137.663C259.547 140.609 260.754 143.55 261.961 146.496C262.083 146.797 262.358 147.002 262.693 146.915C262.977 146.841 263.234 146.479 263.112 146.183C261.905 143.237 260.697 140.295 259.49 137.349C259.368 137.048 259.094 136.843 258.758 136.93C258.475 137.004 258.218 137.366 258.34 137.663Z" fill="#777777"/>
<path d="M270.469 133.623C275.019 136.8 281.007 137.702 286.294 136.024C287.021 135.793 286.712 134.638 285.975 134.874C280.964 136.464 275.377 135.601 271.071 132.594C270.439 132.154 269.842 133.187 270.469 133.623Z" fill="#777777"/>
<path d="M269.513 128.523C271.74 130.428 274.625 131.456 277.558 131.347C278.325 131.317 278.329 130.127 277.558 130.153C274.947 130.249 272.35 129.378 270.358 127.678C269.779 127.181 268.929 128.022 269.513 128.523Z" fill="#777777"/>
<path d="M258.019 162.762C259.484 167.282 264.334 169.757 268.854 168.293C273.373 166.828 275.848 161.978 274.38 157.458C272.915 152.939 268.065 150.464 263.545 151.928C259.026 153.392 256.551 158.243 258.015 162.762H258.019Z" fill="#C2573C"/>
<path d="M291.807 232.377C287.035 226.484 281.888 220.841 276.479 215.511C260.76 229.091 245.04 242.666 229.316 256.241C227.421 246.632 225.032 237.122 222.112 227.77C219.031 217.895 215.205 198.728 203.543 195.782C192.186 192.914 181.626 201.103 175.799 210.081C168.852 220.78 166.098 240.971 164.307 253.4C160.345 280.912 158.92 308.974 164.307 324.502C168.399 336.295 187.74 348.184 201.486 346.353C223.398 343.438 231.378 334.456 258.977 311.676C267.829 304.372 275.996 296.279 284.176 288.234C286.769 285.684 308.193 264.204 308.193 264.204C304.38 252.807 299.442 241.807 291.802 232.372L291.807 232.377Z" fill="#51B0B0"/>
<path d="M264.786 163.825C263.47 163.027 262.703 161.371 263.047 159.85C263.387 158.342 264.756 157.122 266.298 156.974C267.057 156.9 267.065 155.706 266.298 155.78C264.241 155.976 262.359 157.479 261.892 159.532C261.43 161.576 262.394 163.772 264.18 164.853C264.838 165.25 265.44 164.221 264.782 163.825H264.786Z" fill="#474747"/>
<path d="M286.266 164.339C287.164 164.439 288.018 163.938 288.502 163.197C289.073 162.326 289.059 161.193 288.798 160.221C288.515 159.162 287.992 158.155 287.556 157.153C287.081 156.068 286.61 154.982 286.135 153.893C285.83 153.191 284.802 153.797 285.107 154.494C285.839 156.172 286.602 157.841 287.299 159.537C287.608 160.282 287.9 161.114 287.735 161.934C287.591 162.661 287.042 163.232 286.262 163.145C285.499 163.062 285.508 164.252 286.262 164.339H286.266Z" fill="#474747"/>
<path d="M286.919 157.182C287.185 160.416 288.963 163.68 292.145 164.835C295.169 165.933 298.316 164.351 299.876 161.684C301.597 158.742 301.51 154.824 299.771 151.909C298.203 149.272 295.13 147.52 292.053 148.474C288.423 149.603 286.684 153.621 286.919 157.182C286.972 157.944 288.166 157.949 288.114 157.182C287.931 154.454 288.942 151.416 291.452 150.021C293.827 148.705 296.577 149.668 298.189 151.699C300.011 153.996 300.399 157.304 299.362 160.015C298.447 162.407 296.141 164.36 293.461 163.941C290.262 163.44 288.358 160.176 288.114 157.177C288.053 156.419 286.858 156.41 286.919 157.177V157.182Z" fill="#FFAB66"/>
<path d="M287.526 152.693C286.511 152.767 285.5 152.845 284.484 152.92C284.175 152.941 283.874 153.177 283.887 153.517C283.9 153.822 284.149 154.14 284.484 154.114C285.5 154.04 286.511 153.961 287.526 153.887C287.836 153.865 288.136 153.63 288.123 153.29C288.11 152.985 287.862 152.667 287.526 152.693Z" fill="#FFAB66"/>
<path d="M270.684 157.182C270.955 160.485 272.872 163.723 276.128 164.83C279.209 165.876 282.443 164.386 284.12 161.71C285.96 158.772 285.894 154.776 284.068 151.852C282.395 149.172 279.209 147.52 276.067 148.457C272.367 149.555 270.44 153.53 270.68 157.186C270.732 157.949 271.922 157.953 271.874 157.186C271.691 154.397 272.816 151.407 275.374 150.026C277.84 148.692 280.726 149.59 282.464 151.66C284.36 153.918 284.787 157.291 283.667 159.993C282.643 162.472 280.185 164.351 277.409 163.924C274.175 163.422 272.127 160.263 271.874 157.186C271.813 156.428 270.619 156.419 270.68 157.186L270.684 157.182Z" fill="#FFAB66"/>
<path d="M272.317 151.934C270.482 151.656 268.652 151.377 266.817 151.098C266.499 151.05 266.177 151.176 266.085 151.516C266.007 151.799 266.181 152.2 266.503 152.248C268.338 152.527 270.169 152.806 272.003 153.085C272.321 153.133 272.644 153.007 272.736 152.667C272.814 152.383 272.64 151.982 272.317 151.934Z" fill="#FFAB66"/>
<path d="M197.457 284.988C200.255 282.526 203.053 280.064 205.851 277.606C210.048 273.91 214.249 270.219 218.446 266.523C223.131 262.4 227.82 258.278 232.505 254.155C236.828 250.355 241.147 246.55 245.47 242.75C248.477 240.104 251.484 237.459 254.487 234.814C254.727 234.604 254.962 234.395 255.202 234.186C255.782 233.676 254.932 232.835 254.356 233.341C251.559 235.803 248.761 238.265 245.963 240.723C241.766 244.419 237.565 248.11 233.368 251.806C228.683 255.928 223.994 260.051 219.309 264.174C214.986 267.974 210.667 271.779 206.343 275.579C203.336 278.224 200.329 280.87 197.327 283.515C197.087 283.724 196.852 283.934 196.612 284.143C196.032 284.653 196.882 285.494 197.457 284.988Z" fill="#474747"/>
<path d="M220.625 222.28C222.704 230.8 224.783 239.32 226.862 247.836C227.454 250.272 228.051 252.704 228.644 255.14C228.827 255.885 229.978 255.571 229.795 254.822C227.716 246.302 225.637 237.782 223.558 229.266C222.965 226.83 222.368 224.398 221.776 221.962C221.593 221.217 220.442 221.531 220.625 222.28Z" fill="#474747"/>
<path d="M245.597 323.619C254.083 316.358 262.489 309.006 270.809 301.558C279.028 294.197 287.169 286.749 295.232 279.219C299.847 274.913 304.436 270.581 309.007 266.231C309.565 265.7 308.72 264.859 308.162 265.386C300.056 273.1 291.889 280.748 283.639 288.314C275.511 295.766 267.309 303.136 259.02 310.405C254.287 314.558 249.533 318.677 244.748 322.769C244.164 323.27 245.009 324.111 245.593 323.614L245.597 323.619Z" fill="#474747"/>
<path d="M302.67 251.683C304.788 256.333 306.557 261.075 308.017 265.969C308.235 266.701 309.39 266.392 309.168 265.651C307.677 260.657 305.86 255.824 303.698 251.078C303.38 250.38 302.352 250.986 302.67 251.679V251.683Z" fill="#474747"/>
<path d="M264.361 226.333C269.081 232.504 273.383 238.997 277.449 245.622C281.759 252.647 285.799 259.846 289.495 267.216C291.377 270.972 293.168 274.773 294.811 278.643C294.938 278.943 295.374 279 295.626 278.856C295.936 278.682 295.966 278.333 295.84 278.041C292.802 270.89 289.281 263.943 285.529 257.14C281.55 249.923 277.283 242.854 272.703 236.003C270.367 232.512 267.944 229.078 265.394 225.74C264.932 225.139 263.895 225.731 264.366 226.341L264.361 226.333Z" fill="#474747"/>
<path d="M270.361 323.496C273.969 316.135 276.702 308.404 278.453 300.393C278.963 298.062 279.395 295.717 279.77 293.364C279.887 292.614 278.741 292.287 278.619 293.046C277.347 301.06 275.311 308.927 272.239 316.449C271.345 318.632 270.369 320.781 269.332 322.894C268.996 323.583 270.025 324.189 270.361 323.496Z" fill="#474747"/>
<path d="M319.233 252.224C318.728 258.896 318.222 265.568 317.717 272.241C317.66 273.008 318.854 273.003 318.911 272.241C319.416 265.568 319.922 258.896 320.428 252.224C320.484 251.457 319.29 251.461 319.233 252.224Z" fill="#474747"/>
<path d="M239.562 189.381C238.189 196.951 237.653 204.661 237.98 212.348C238.01 213.115 239.204 213.115 239.174 212.348C238.851 204.77 239.361 197.165 240.712 189.695C240.847 188.945 239.697 188.623 239.562 189.377V189.381Z" fill="#474747"/>
<path d="M238.48 231.022C243.785 231.022 248.085 226.722 248.085 221.417C248.085 216.112 243.785 211.812 238.48 211.812C233.175 211.812 228.875 216.112 228.875 221.417C228.875 226.722 233.175 231.022 238.48 231.022Z" fill="#474747"/>
<path d="M238.483 229.545C242.972 229.545 246.611 225.906 246.611 221.417C246.611 216.928 242.972 213.289 238.483 213.289C233.994 213.289 230.355 216.928 230.355 221.417C230.355 225.906 233.994 229.545 238.483 229.545Z" fill="white"/>
<path d="M268.869 180.835C270.568 182.739 272.621 184.304 274.831 185.572C275.497 185.956 276.099 184.923 275.432 184.544C273.305 183.323 271.348 181.829 269.714 179.994C269.204 179.419 268.359 180.264 268.869 180.839V180.835Z" fill="#474747"/>
<path d="M582.781 204.094C582.781 204.094 577.704 206.151 573.045 203.292L572.344 200.62C572.344 200.62 575.124 187.084 580.445 188.74L582.786 204.094H582.781Z" fill="#FFAB66"/>
<path d="M564.427 191.058C564.056 191.337 563.694 191.624 563.333 191.916C562.688 192.435 561.581 193.071 561.777 194.03C561.951 194.88 563.01 195.298 563.755 195.355C565.913 195.512 564.427 191.062 564.427 191.062V191.058Z" fill="#FFAB66"/>
<path d="M571.396 202.098C574.895 200.577 577.915 196.311 578.879 194.955C580.495 192.685 584.187 188.645 581.254 183.136C580.278 181.301 577.24 178.094 572.429 178.852C569.753 179.275 566.959 180.966 565.861 182.801C565.512 183.376 565.203 184.121 564.928 184.971C564.68 185.747 564.628 189.107 564.44 190.031C563.791 193.251 562.998 195.879 563.137 198.097C563.407 202.368 567.173 203.933 571.391 202.098H571.396Z" fill="#FFAB66"/>
<path d="M563.504 197.111C563.556 197.111 563.609 197.119 563.656 197.128C563.604 197.119 563.552 197.115 563.5 197.106C563.696 197.133 563.883 197.189 564.066 197.263C564.018 197.242 563.97 197.224 563.922 197.202C564.105 197.281 564.275 197.381 564.432 197.499C564.393 197.468 564.354 197.438 564.31 197.407C564.458 197.525 564.593 197.656 564.711 197.804C564.681 197.764 564.65 197.725 564.62 197.682C564.624 197.69 564.628 197.695 564.637 197.703C564.737 197.834 564.829 197.934 564.994 197.978C565.138 198.017 565.326 198 565.452 197.917C565.578 197.834 565.692 197.712 565.727 197.56C565.761 197.416 565.761 197.224 565.666 197.102C565.408 196.762 565.103 196.47 564.724 196.265C564.345 196.06 563.935 195.947 563.504 195.917C563.356 195.908 563.181 195.991 563.081 196.091C562.977 196.196 562.898 196.366 562.907 196.514C562.924 196.854 563.168 197.089 563.504 197.111Z" fill="#474747"/>
<path d="M581.907 191.024L581.584 196.158C581.584 196.158 574.764 198.694 572.637 194.733C570.511 190.771 574.455 186.356 574.455 186.356L581.907 191.024Z" fill="#474747"/>
<path d="M563.987 188.645C564.17 187.852 564.954 187.394 565.665 187.416C566.584 187.442 567.408 187.865 567.857 188.81C568.511 190.183 567.77 191.207 566.916 190.632C566.362 190.257 566.231 190.209 565.626 190.031C565.177 189.896 564.758 189.957 564.462 189.787C564.074 189.569 563.878 189.111 563.987 188.645Z" fill="#474747"/>
<path d="M576.509 194.401C575.947 196.166 574.064 197.142 572.299 196.58C570.534 196.018 569.558 194.135 570.12 192.37C570.682 190.605 572.565 189.629 574.33 190.191C576.095 190.753 577.071 192.64 576.509 194.405V194.401Z" fill="#FFAB66"/>
<path d="M565.377 190.671C566.353 190.702 566.222 191.983 566.043 192.502C565.93 192.837 565.69 193.23 565.246 193.208C564.601 193.182 564.562 192.375 564.588 191.944C564.618 191.464 564.732 190.65 565.372 190.671H565.377Z" fill="#474747"/>
<path d="M574.021 195.892C574.884 195.321 575.468 194.293 575.372 193.238C575.272 192.166 574.588 191.295 573.594 190.902C573.302 190.785 572.927 191.029 572.862 191.321C572.783 191.665 572.966 191.931 573.28 192.053C573.202 192.022 573.28 192.053 573.315 192.07C573.354 192.092 573.398 192.114 573.437 192.136C573.468 192.153 573.498 192.175 573.529 192.192C573.529 192.192 573.651 192.284 573.603 192.245C573.55 192.205 573.672 192.306 573.668 192.306C573.694 192.332 573.72 192.358 573.747 192.384C573.777 192.419 573.812 192.449 573.838 192.484C573.864 192.515 573.912 192.585 573.864 192.515C573.912 192.585 573.956 192.654 573.999 192.724C574.021 192.763 574.043 192.807 574.065 192.846C574.113 192.942 574.06 192.82 574.082 192.881C574.108 192.959 574.134 193.038 574.156 193.121C574.169 193.164 574.178 193.212 574.182 193.256C574.2 193.352 574.178 193.116 574.182 193.291C574.182 193.378 574.191 193.465 574.182 193.548C574.182 193.596 574.178 193.644 574.169 193.691C574.178 193.626 574.169 193.661 574.165 193.705C574.143 193.8 574.121 193.892 574.091 193.983C574.078 194.018 574.065 194.058 574.052 194.092C574.086 194.001 574.039 194.119 574.03 194.136C573.986 194.223 573.938 194.31 573.886 194.389C573.86 194.428 573.834 194.472 573.803 194.511C573.842 194.458 573.808 194.506 573.786 194.528C573.72 194.598 573.655 194.672 573.581 194.737C573.55 194.764 573.524 194.79 573.489 194.811C573.572 194.75 573.42 194.855 573.42 194.855C573.15 195.034 573.036 195.382 573.206 195.67C573.363 195.936 573.751 196.062 574.021 195.884V195.892Z" fill="#474747"/>
<path d="M584.934 183.341C584.559 181.768 582.846 181.306 581.169 181.45C580.894 180.739 580.615 180.029 580.319 179.336C579.896 178.342 579.273 177.462 578.052 177.732C577.743 177.802 577.429 177.959 577.159 178.168C576.2 177.026 575.137 176.159 574.113 176.159C572.954 176.159 572.282 176.808 571.895 177.854C570.391 176.399 567.262 175.183 565.222 176.268C564.063 176.887 563.431 178.046 563.475 179.253C561.666 180.099 560.341 181.811 561.775 183.646C562.73 184.866 564.281 185.246 565.846 185.337C568.251 185.477 569.171 185.477 570.252 185.477C568.434 189.294 568.273 192.153 570.417 192.175C572.165 192.192 573.219 190.135 573.542 189.39C574.174 189.817 574.836 190.175 575.472 190.419C576.802 191.848 581.099 191.634 581.901 191.024C581.901 191.024 585.579 186.056 584.934 183.341Z" fill="#474747"/>
<path d="M573.787 198.458C573.587 198.907 573.338 199.338 573.055 199.744C573.025 199.787 572.99 199.831 572.959 199.879C572.959 199.883 572.872 199.992 572.933 199.918C572.985 199.853 572.924 199.927 572.916 199.94C572.837 200.036 572.759 200.132 572.676 200.223C572.51 200.415 572.332 200.598 572.144 200.772C571.918 200.986 571.913 201.404 572.144 201.618C572.388 201.844 572.746 201.844 572.99 201.618C573.757 200.899 574.389 200.027 574.82 199.068C574.89 198.916 574.925 198.776 574.881 198.611C574.842 198.471 574.737 198.323 574.607 198.253C574.345 198.114 573.927 198.162 573.792 198.467L573.787 198.458Z" fill="#474747"/>
<path d="M612.897 262.422C612.897 262.422 610.931 272.101 610.181 274.572C609.432 277.043 605.139 276.141 606.037 271.548C606.935 266.954 608.294 262.845 608.294 262.845L612.897 262.422Z" fill="#FFAB66"/>
<path d="M607.721 411.107C605.904 410.226 603.943 409.747 601.916 409.682C600.757 408.819 598.643 409.316 598.678 411.19C598.774 416.511 598.757 421.549 594.08 424.116C591.797 425.371 587.678 427.528 586.001 429.676C584.445 431.668 584.27 433.503 585.033 435.329C585.469 436.375 588.001 436.266 589.243 436.296H609.399C612.009 436.296 612.96 433.895 612.894 432.823C612.471 425.798 611.966 420.111 611.234 412.292C611.042 410.231 608.811 409.839 607.721 411.115V411.107Z" fill="#474747"/>
<path d="M614.4 404.983C614.309 401.575 610.243 352.346 609.803 344.79C609.437 338.514 606.077 315.194 606.661 308.949C607.24 302.778 610.696 292.732 610.622 280.839C610.591 275.662 607.428 263.302 604.046 259.197C600.768 255.222 595.547 254.852 590.584 256.752C585.563 258.674 582.748 268.484 579.924 272.916C576.856 277.723 574.986 283.262 574.202 288.893C572.572 300.551 575.74 312.117 580.577 322.672C582.512 344.755 591.181 400.8 592.436 406.853C593.103 410.06 594.297 413.294 596.672 415.273C596.489 416.759 596.537 418.755 597.909 419.531C600.215 420.834 609.55 420.794 611.877 418.794C613.036 417.796 613.041 415.421 612.749 413.29C613.049 412.937 613.311 412.566 613.529 412.165C614.71 409.995 614.466 407.354 614.4 404.983Z" fill="#777777"/>
<path d="M585.485 433.804H612.266C613.033 433.804 613.033 432.609 612.266 432.609H585.485C584.718 432.609 584.718 433.804 585.485 433.804Z" fill="#85888E"/>
<path d="M605.15 433.146C605.599 431.489 606.127 429.724 607.325 428.439C608.45 427.24 610.119 426.674 611.718 427.127C612.459 427.336 612.773 426.186 612.036 425.977C610.11 425.432 608.049 426.046 606.637 427.441C605.181 428.875 604.519 430.905 604 432.832C603.799 433.573 604.95 433.891 605.15 433.15V433.146Z" fill="#85888E"/>
<path d="M597.214 416.18C602.374 416.873 607.648 416.293 612.55 414.559C613.269 414.306 612.96 413.151 612.232 413.408C607.412 415.112 602.283 415.67 597.214 414.986C596.892 414.942 596.622 415.291 596.617 415.583C596.617 415.94 596.896 416.136 597.214 416.18Z" fill="#474747"/>
<path d="M544.771 411.107C542.949 410.226 540.993 409.747 538.966 409.682C537.807 408.819 535.693 409.316 535.728 411.19C535.824 416.511 532.908 421.549 528.232 424.116C525.948 425.371 521.56 427.528 519.882 429.676C518.326 431.668 518.527 434.37 518.993 435.529C519.416 436.58 522.153 436.262 523.399 436.292H543.551C546.161 436.292 546.998 433.891 547.046 432.819C547.373 425.968 547.782 419.126 548.284 412.288C548.436 410.222 545.861 409.834 544.771 411.111V411.107Z" fill="#474747"/>
<path d="M605.912 263.804L605.354 254.856H571.217L570.285 264.248C569.496 265.477 568.821 266.802 568.232 268.192C563.264 279.95 547.231 324.512 543.714 336.762C536.475 361.978 530.007 404.604 531.803 412.641C531.969 413.382 532.404 414.057 533.032 414.663C532.67 416.646 532.601 418.759 533.616 419.757C535.799 421.91 545.113 422.59 547.501 421.448C548.891 420.782 549.1 418.868 549.031 417.391C549.61 417.164 550.116 416.89 550.504 416.554C554.735 412.92 568.407 357.999 570.424 351.819C572.377 345.836 592.842 306.657 596.259 294.772C597.932 288.945 599.41 282.8 599.475 276.712C599.523 272.302 598.743 267.377 595.841 263.93L605.912 263.804Z" fill="#777777"/>
<path d="M570.69 265.22C579.192 266.252 587.826 266.296 596.311 265.032C598.608 264.688 600.891 264.248 603.149 263.699C603.894 263.52 603.58 262.369 602.831 262.548C594.733 264.505 586.348 265.093 578.042 264.666C575.584 264.54 573.135 264.322 570.69 264.025C569.927 263.934 569.936 265.128 570.69 265.22Z" fill="#474747"/>
<path d="M607.939 258.588C607.939 258.588 605.821 233.489 605.381 228.094C604.949 222.786 605.69 217.081 603.995 211.943C602.439 207.228 598.307 204.63 593.618 203.654C587.552 202.395 581.141 202.225 574.983 202.743C571.911 203 568.808 203.406 565.801 204.09C563.478 204.617 561.565 205.763 560.614 208.021C559.316 211.106 560.148 214.462 560.536 217.639C561.273 223.684 562.759 230.526 563.207 236.741C563.778 244.694 564.925 260.152 564.925 260.152C594.115 263.748 607.943 258.588 607.943 258.588H607.939Z" fill="#378182"/>
<path d="M517.503 210.892C517.642 214.775 519.8 222.672 520.087 226.546C521.325 225.971 520.571 221.382 521.787 220.767C525.666 218.811 529.514 216.784 533.323 214.697C531.736 206.094 530.015 196.92 529.736 195.613C529.353 193.8 528.991 191.974 528.546 190.174C528.158 188.601 527.627 186.696 525.635 186.574C522.876 186.408 523.077 189.394 523.208 190.61C523.556 193.808 523.661 194.889 524.075 197.779C522.162 197.051 520.018 198.437 519.059 199.626C517.843 199.321 516.483 199.709 515.52 200.834C514.134 202.455 514.095 205.946 514.605 207.968C514.958 209.375 516.147 210.587 517.498 210.888L517.503 210.892Z" fill="#FFAB66"/>
<path d="M532.832 211.529L515.879 219.879C515.879 219.879 517.199 252.831 527.803 260.523C538.401 268.215 547.183 255.659 549.501 252.744C551.82 249.832 557.337 240.72 557.337 240.72L546.229 221.387L538.109 233.851L532.832 211.529Z" fill="#CDECE9"/>
<path d="M611.675 255.649C608.655 253.418 606.371 253.226 603.621 253.644C599.272 257.501 595.01 261.458 590.848 265.52C588.991 267.333 590.599 270.009 592.565 270.192C592.399 270.362 592.229 270.527 592.064 270.697C589.658 273.16 593.301 277.099 595.72 274.624C596.108 274.227 596.5 273.84 596.892 273.443C596.94 275.535 599.468 277.361 601.311 275.465C605.099 271.573 610.028 267.028 613.95 262.979C615.715 260.813 612.764 256.455 611.675 255.649Z" fill="#FFAB66"/>
<path d="M609.57 234.5L620.326 243.687L603.621 253.645L614.996 265.211C614.996 265.211 637.157 252.982 641.475 250.694C646.444 248.066 646.064 240.78 642.539 236.901C640.085 234.199 624.666 221.504 624.666 221.504L609.57 234.495V234.5Z" fill="#CDECE9"/>
<path d="M565.811 204.094C565.811 204.094 554.851 205.153 546.23 221.391C546.23 221.391 549.377 235.359 557.923 244.389L566.613 232.927L565.811 204.098V204.094Z" fill="#378182"/>
<path d="M592.676 203.471C592.676 203.471 602.006 205.027 608.291 209.35C615.015 213.978 624.673 221.504 624.673 221.504L610.374 238.479L601.562 230.526L592.68 203.471H592.676Z" fill="#378182"/>
<path d="M593.218 270.158C594.761 268.632 596.395 267.199 598.121 265.882C598.378 265.686 598.514 265.368 598.335 265.067C598.187 264.815 597.777 264.658 597.52 264.854C595.711 266.231 593.994 267.717 592.377 269.312C591.828 269.853 592.674 270.698 593.223 270.158H593.218Z" fill="#474747"/>
<path d="M597.641 273.531C599.21 272.001 600.779 270.472 602.348 268.946C602.897 268.41 602.056 267.565 601.503 268.101C599.934 269.631 598.365 271.16 596.796 272.686C596.247 273.222 597.088 274.067 597.641 273.531Z" fill="#474747"/>
<path d="M516.173 205.213C516.255 206.917 516.343 208.621 516.425 210.325C516.443 210.648 516.687 210.922 517.022 210.922C517.332 210.922 517.637 210.648 517.619 210.325C517.537 208.621 517.45 206.917 517.367 205.213C517.349 204.891 517.105 204.616 516.77 204.616C516.46 204.616 516.155 204.891 516.173 205.213Z" fill="#474747"/>
<path d="M519.235 200.232C521.566 200.921 523.318 202.982 523.697 205.37C523.75 205.688 524.146 205.867 524.43 205.789C524.769 205.697 524.896 205.375 524.848 205.056C524.403 202.267 522.251 199.879 519.553 199.086C518.816 198.868 518.498 200.019 519.235 200.236V200.232Z" fill="#474747"/>
<path d="M523.778 198.354C526.018 199.012 527.556 201.077 527.561 203.409C527.561 204.176 528.755 204.176 528.755 203.409C528.746 200.546 526.841 198.009 524.096 197.203C523.359 196.985 523.041 198.136 523.778 198.354Z" fill="#474747"/>
<path d="M519.478 433.804H546.363C547.13 433.804 547.13 432.609 546.363 432.609H519.478C518.711 432.609 518.711 433.804 519.478 433.804Z" fill="#85888E"/>
<path d="M539.144 433.145C539.85 431.463 540.665 429.741 542.02 428.477C543.245 427.331 545.01 426.638 546.67 427.126C547.407 427.344 547.725 426.194 546.988 425.976C544.997 425.388 542.896 426.141 541.371 427.462C539.745 428.87 538.812 430.883 537.998 432.831C537.871 433.132 538.133 433.485 538.416 433.563C538.76 433.664 539.026 433.441 539.148 433.145H539.144Z" fill="#85888E"/>
<path d="M582.047 328.695C585.564 322.393 589.43 316.287 592.829 309.92C596.141 303.714 599.022 297.195 600.434 290.274C601.24 286.308 601.554 282.246 601.31 278.206C601.262 277.444 600.072 277.439 600.116 278.206C600.547 285.297 599.17 292.279 596.647 298.89C594.141 305.458 590.641 311.594 587.09 317.643C585.05 321.12 582.98 324.576 581.014 328.098C580.64 328.769 581.668 329.37 582.043 328.699L582.047 328.695Z" fill="#474747"/>
<path d="M533.493 415.495C535.794 416.397 538.217 417.003 540.649 417.434C543.216 417.892 545.835 418.167 548.441 418.088C549.208 418.066 549.212 416.872 548.441 416.894C545.883 416.972 543.316 416.711 540.801 416.253C538.426 415.822 536.064 415.22 533.811 414.34C533.096 414.061 532.787 415.212 533.493 415.491V415.495Z" fill="#474747"/>
<path d="M540.202 416.628C540.651 406.312 541.863 396.045 543.667 385.882C545.462 375.767 547.829 365.756 550.548 355.85C553.294 345.853 556.384 335.951 559.7 326.128C562.895 316.671 566.303 307.292 569.689 297.905C573.106 288.431 576.488 278.943 579.608 269.368C580.022 268.096 580.432 266.823 580.837 265.551C581.072 264.819 579.917 264.505 579.686 265.233C576.57 275.003 573.18 284.678 569.711 294.323C566.346 303.68 562.93 313.019 559.7 322.424C556.323 332.264 553.163 342.179 550.33 352.189C547.519 362.126 545.04 372.162 543.118 382.308C541.213 392.353 539.845 402.512 539.217 412.723C539.139 414.022 539.069 415.325 539.012 416.624C538.978 417.391 540.172 417.391 540.207 416.624L540.202 416.628Z" fill="#474747"/>
<path d="M571.862 265.207C570.689 268.21 569.962 271.378 569.609 274.581C569.264 277.719 569.291 280.957 570.018 284.043C570.376 285.564 570.934 287.054 571.749 288.392C572.149 289.046 573.182 288.449 572.777 287.791C571.326 285.42 570.777 282.587 570.628 279.841C570.463 276.704 570.798 273.54 571.496 270.476C571.879 268.794 572.38 267.138 573.008 265.53C573.287 264.815 572.132 264.505 571.857 265.211L571.862 265.207Z" fill="#474747"/>
<path d="M564.078 237.271C567.037 233.331 569.996 229.387 572.951 225.448C573.413 224.833 572.376 224.236 571.923 224.846C568.963 228.786 566.004 232.73 563.05 236.67C562.588 237.284 563.625 237.881 564.078 237.271Z" fill="#474747"/>
<path d="M603.34 220.566C604.068 225.195 604.8 229.823 605.528 234.451C605.646 235.209 606.796 234.887 606.679 234.133C605.951 229.505 605.219 224.876 604.491 220.248C604.373 219.49 603.223 219.812 603.34 220.566Z" fill="#474747"/>
<path d="M548.574 217.504C549.45 220.651 550.718 223.688 552.104 226.639C553.595 229.816 555.264 232.919 557.147 235.882C558.084 237.359 559.082 238.798 560.175 240.162C560.655 240.763 561.496 239.913 561.021 239.316C559.047 236.845 557.391 234.117 555.861 231.358C554.183 228.334 552.662 225.213 551.385 221.997C550.758 220.42 550.187 218.816 549.733 217.181C549.529 216.441 548.378 216.754 548.583 217.5L548.574 217.504Z" fill="#474747"/>
<path d="M533.138 241.56C535.043 239.002 536.947 236.444 538.852 233.886C539.043 233.624 538.891 233.223 538.638 233.071C538.337 232.892 538.015 233.027 537.823 233.284C535.919 235.842 534.014 238.401 532.11 240.959C531.918 241.22 532.071 241.621 532.323 241.774C532.624 241.957 532.947 241.817 533.138 241.56Z" fill="#474747"/>
<path d="M620.894 243.612C622.223 242.889 623.553 242.165 624.882 241.442C625.165 241.289 625.257 240.897 625.095 240.627C624.93 240.339 624.564 240.256 624.28 240.413C622.951 241.137 621.622 241.86 620.293 242.584C620.01 242.736 619.918 243.128 620.079 243.399C620.245 243.686 620.611 243.769 620.894 243.612Z" fill="#474747"/>
<path d="M607.081 234.953C611.474 229.627 615.945 224.359 620.621 219.281C621.14 218.719 620.299 217.869 619.776 218.436C615.1 223.513 610.628 228.782 606.235 234.108C605.752 234.696 606.588 235.546 607.081 234.953Z" fill="#474747"/>
<path d="M390.839 376.02H498.671C502.423 376.02 505.465 372.978 505.465 369.225V325.039C505.465 321.286 502.423 318.245 498.671 318.245H390.839C387.086 318.245 384.044 321.286 384.044 325.039V369.225C384.044 372.978 387.086 376.02 390.839 376.02Z" fill="#EAEAEA"/>
<path d="M417.25 318.484L390.047 298.568C388.739 297.609 387.027 299.056 387.75 300.507L396.763 318.484C396.763 318.484 408.638 327.492 417.25 318.484Z" fill="#EAEAEA"/>
<path d="M457.942 357.882H477.371C478.138 357.882 478.138 356.688 477.371 356.688H457.942C457.175 356.688 457.175 357.882 457.942 357.882Z" fill="#474747"/>
<path d="M413.599 357.882C422.233 358.012 430.866 358.056 439.499 357.978C442.031 357.956 444.568 357.921 447.1 357.882C447.867 357.869 447.871 356.675 447.1 356.688C438.453 356.818 429.807 356.862 421.156 356.783C418.637 356.762 416.114 356.727 413.595 356.688C412.828 356.675 412.828 357.869 413.595 357.882H413.599Z" fill="#474747"/>
<path d="M413.603 346.498H456.569C457.336 346.498 457.336 345.304 456.569 345.304H413.603C412.836 345.304 412.836 346.498 413.603 346.498Z" fill="#474747"/>
<path d="M445.085 335.113C453.491 335.017 461.898 334.996 470.301 335.048C472.654 335.061 475.012 335.083 477.365 335.113C478.132 335.122 478.132 333.928 477.365 333.919C469.011 333.823 460.656 333.802 452.306 333.854C449.9 333.871 447.49 333.889 445.085 333.919C444.318 333.928 444.313 335.122 445.085 335.113Z" fill="#474747"/>
<path d="M413.6 335.115C420.604 334.985 427.616 334.985 434.619 335.115C435.386 335.128 435.386 333.934 434.619 333.921C427.616 333.791 420.604 333.791 413.6 333.921C412.833 333.934 412.829 335.128 413.6 335.115Z" fill="#474747"/>
<path d="M456.706 51.0303H298.63C294.878 51.0303 291.836 54.0722 291.836 57.8245V114.846C291.836 118.598 294.878 121.64 298.63 121.64H456.706C460.459 121.64 463.501 118.598 463.501 114.846V57.8245C463.501 54.0722 460.459 51.0303 456.706 51.0303Z" fill="#EAEAEA"/>
<path d="M339.455 119.591L307.806 142.763C306.285 143.878 304.289 142.192 305.135 140.505L315.616 119.591C315.616 119.591 329.431 109.114 339.45 119.591H339.455Z" fill="#EAEAEA"/>
<path d="M325.771 100.436H359.101C359.868 100.436 359.868 99.2422 359.101 99.2422H325.771C325.004 99.2422 325.004 100.436 325.771 100.436Z" fill="#474747"/>
<path d="M362.251 87.1961H375.007C375.774 87.1961 375.774 86.002 375.007 86.002H362.251C361.484 86.002 361.484 87.1961 362.251 87.1961Z" fill="#474747"/>
<path d="M325.772 87.1971C332.44 87.0969 339.112 87.0577 345.78 87.1187C347.828 87.1361 349.877 87.1666 351.921 87.1971C352.688 87.2102 352.688 86.0161 351.921 86.003C345.248 85.9028 338.576 85.8636 331.904 85.9246C329.86 85.942 327.816 85.9725 325.772 86.003C325.005 86.0161 325.001 87.2059 325.772 87.1971Z" fill="#474747"/>
<path d="M347.612 73.9521C354.703 73.9259 361.798 73.9216 368.888 73.9346C370.928 73.9346 372.972 73.9434 375.011 73.9521C375.778 73.9521 375.778 72.7623 375.011 72.758C367.881 72.7318 360.747 72.7275 353.618 72.7405C351.617 72.7405 349.612 72.7493 347.612 72.758C346.845 72.758 346.841 73.9521 347.612 73.9521Z" fill="#474747"/>
<path d="M325.771 73.9529H337.097C337.864 73.9529 337.864 72.7588 337.097 72.7588H325.771C325.004 72.7588 325.004 73.9529 325.771 73.9529Z" fill="#474747"/>
<path d="M555.862 133.096H477.552C473.8 133.096 470.758 136.138 470.758 139.89V170.235C470.758 173.988 473.8 177.029 477.552 177.029H555.862C559.615 177.029 562.657 173.988 562.657 170.235V139.89C562.657 136.138 559.615 133.096 555.862 133.096Z" fill="#EAEAEA"/>
<path d="M522.855 169.512L550.059 189.429C551.366 190.388 553.079 188.941 552.355 187.489L543.343 169.512C543.343 169.512 531.467 160.504 522.855 169.512Z" fill="#EAEAEA"/>
<path d="M499.106 155.066C499.106 156.465 497.973 157.593 496.578 157.593C495.184 157.593 494.051 156.46 494.051 155.066C494.051 153.671 495.184 152.538 496.578 152.538C497.973 152.538 499.106 153.671 499.106 155.066Z" fill="#474747"/>
<path d="M519.243 155.066C519.243 156.465 518.11 157.593 516.715 157.593C515.321 157.593 514.188 156.46 514.188 155.066C514.188 153.671 515.321 152.538 516.715 152.538C518.11 152.538 519.243 153.671 519.243 155.066Z" fill="#474747"/>
<path d="M539.372 155.066C539.372 156.465 538.239 157.593 536.844 157.593C535.449 157.593 534.316 156.46 534.316 155.066C534.316 153.671 535.449 152.538 536.844 152.538C538.239 152.538 539.372 153.671 539.372 155.066Z" fill="#474747"/>
<path d="M471.706 98.188C489.564 80.3296 489.564 51.3755 471.706 33.517C453.847 15.6586 424.893 15.6586 407.035 33.517C389.176 51.3754 389.176 80.3296 407.035 98.188C424.893 116.046 453.847 116.046 471.706 98.188Z" fill="#51B0B0"/>
<path d="M422.98 51.8874V38.7478C422.98 37.606 423.909 36.6777 425.051 36.6777H451.142C456.586 42.121 459.641 45.176 465.084 50.6192V88.3994C465.084 89.5412 464.156 90.4695 463.014 90.4695H425.051C423.909 90.4695 422.98 89.5412 422.98 88.3994V86.4993" fill="white"/>
<path d="M463.014 91.4501H425.051C423.368 91.4501 422 90.0817 422 88.3995V86.4994C422 85.959 422.44 85.5188 422.981 85.5188C423.521 85.5188 423.961 85.959 423.961 86.4994V88.3995C423.961 89.0009 424.449 89.489 425.051 89.489H463.014C463.615 89.489 464.103 89.0009 464.103 88.3995V51.0246L450.737 37.6584H425.051C424.449 37.6584 423.961 38.1465 423.961 38.7479V51.8875C423.961 52.4279 423.521 52.8681 422.981 52.8681C422.44 52.8681 422 52.4279 422 51.8875V38.7479C422 37.0657 423.368 35.6973 425.051 35.6973H451.142C451.404 35.6973 451.652 35.8019 451.835 35.9849L465.777 49.9264C465.96 50.1094 466.065 50.3622 466.065 50.6193V88.3995C466.065 90.0817 464.696 91.4501 463.014 91.4501Z" fill="#474747"/>
<path d="M444.356 40.2168H429.325C427.553 40.2168 426.117 41.6529 426.117 43.4243V45.7123C426.117 47.4838 427.553 48.9199 429.325 48.9199H444.356C446.127 48.9199 447.563 47.4838 447.563 45.7123V43.4243C447.563 41.6529 446.127 40.2168 444.356 40.2168Z" fill="#51B0B0"/>
<path d="M458.881 56.5117H441.784C440.583 56.5117 439.609 57.4854 439.609 58.6864C439.609 59.8874 440.583 60.8611 441.784 60.8611H458.881C460.082 60.8611 461.055 59.8874 461.055 58.6864C461.055 57.4854 460.082 56.5117 458.881 56.5117Z" fill="#51B0B0"/>
<path d="M458.881 63.1885H441.784C440.583 63.1885 439.609 64.1621 439.609 65.3632C439.609 66.5642 440.583 67.5378 441.784 67.5378H458.881C460.082 67.5378 461.055 66.5642 461.055 65.3632C461.055 64.1621 460.082 63.1885 458.881 63.1885Z" fill="#51B0B0"/>
<path d="M458.881 69.8643H441.784C440.583 69.8643 439.609 70.8379 439.609 72.0389C439.609 73.24 440.583 74.2136 441.784 74.2136H458.881C460.082 74.2136 461.055 73.24 461.055 72.0389C461.055 70.8379 460.082 69.8643 458.881 69.8643Z" fill="#51B0B0"/>
<path d="M458.881 76.541H441.784C440.583 76.541 439.609 77.5146 439.609 78.7157C439.609 79.9167 440.583 80.8904 441.784 80.8904H458.881C460.082 80.8904 461.055 79.9167 461.055 78.7157C461.055 77.5146 460.082 76.541 458.881 76.541Z" fill="#51B0B0"/>
<path d="M422.98 82.9439C430.634 82.9439 436.838 76.7392 436.838 69.0853C436.838 61.4313 430.634 55.2266 422.98 55.2266C415.326 55.2266 409.121 61.4313 409.121 69.0853C409.121 76.7392 415.326 82.9439 422.98 82.9439Z" fill="#EAEAEA"/>
<path d="M422.98 83.9236C414.795 83.9236 408.141 77.2688 408.141 69.0844C408.141 60.8999 414.8 54.2451 422.98 54.2451C431.16 54.2451 437.819 60.8999 437.819 69.0844C437.819 77.2688 431.16 83.9236 422.98 83.9236ZM422.98 56.2063C415.881 56.2063 410.102 61.9807 410.102 69.0844C410.102 76.188 415.876 81.9625 422.98 81.9625C430.084 81.9625 435.858 76.1837 435.858 69.0844C435.858 61.9851 430.084 56.2063 422.98 56.2063Z" fill="#474747"/>
<path d="M429.473 69.4908C429.067 69.0245 428.357 68.9722 427.891 69.3775L425.184 71.7222L422.321 69.2424C423.646 68.458 424.535 67.0155 424.535 65.3681C424.535 62.8884 422.517 60.8662 420.033 60.8662H417.331C416.712 60.8662 416.211 61.3674 416.211 61.9862V73.2039C416.211 73.8228 416.712 74.324 417.331 74.324C417.95 74.324 418.451 73.8228 418.451 73.2039V69.8656H419.615L423.467 73.2039L421.005 75.3394C420.539 75.7447 420.486 76.4551 420.892 76.9214C421.297 77.3877 422.007 77.44 422.473 77.0347L425.18 74.69L427.886 77.0347C428.353 77.44 429.063 77.3877 429.468 76.9214C429.874 76.4551 429.821 75.7447 429.355 75.3394L426.893 73.2039L429.355 71.0685C429.821 70.6632 429.874 69.9528 429.468 69.4865L429.473 69.4908ZM420.037 67.6256H418.455V63.1106H420.037C421.284 63.1106 422.295 64.1217 422.295 65.3681C422.295 66.6145 421.284 67.6256 420.037 67.6256Z" fill="#474747"/>
<path d="M465.082 50.611H454.448C452.622 50.611 451.141 49.1293 451.141 47.3033V36.6826L465.082 50.6154V50.611Z" fill="white"/>
<path d="M465.087 51.5925H454.453C452.086 51.5925 450.16 49.6662 450.16 47.2998V36.6791C450.16 36.2825 450.4 35.9252 450.766 35.7726C451.132 35.6201 451.555 35.7029 451.834 35.9862L465.775 49.919C466.054 50.1979 466.141 50.6206 465.989 50.9867C465.836 51.3528 465.479 51.5925 465.082 51.5925H465.087ZM452.126 39.0456V47.2998C452.126 48.5854 453.172 49.627 454.453 49.627H462.716L452.126 39.0456Z" fill="#474747"/>
<path d="M590.808 148.473C603.608 135.673 603.608 114.919 590.808 102.119C578.008 89.3188 557.254 89.3188 544.454 102.119C531.654 114.919 531.654 135.673 544.454 148.473C557.255 161.273 578.008 161.273 590.808 148.473Z" fill="#51B0B0"/>
<path d="M554.855 134.774C559.493 134.774 563.253 131.014 563.253 126.376C563.253 121.737 559.493 117.978 554.855 117.978C550.217 117.978 546.457 121.737 546.457 126.376C546.457 131.014 550.217 134.774 554.855 134.774Z" fill="#EAEAEA"/>
<mask id="mask0_101_68" style="mask-type:luminance" maskUnits="userSpaceOnUse" x="546" y="117" width="18" height="18">
<path d="M554.859 134.774C559.497 134.774 563.257 131.014 563.257 126.376C563.257 121.737 559.497 117.978 554.859 117.978C550.221 117.978 546.461 121.737 546.461 126.376C546.461 131.014 550.221 134.774 554.859 134.774Z" fill="white"/>
</mask>
<g mask="url(#mask0_101_68)">
<path d="M563.128 118.023L547.258 134.764L549.617 137L565.487 120.26L563.128 118.023Z" fill="white"/>
</g>
<path d="M580.312 134.774C584.95 134.774 588.71 131.014 588.71 126.376C588.71 121.737 584.95 117.978 580.312 117.978C575.674 117.978 571.914 121.737 571.914 126.376C571.914 131.014 575.674 134.774 580.312 134.774Z" fill="#EAEAEA"/>
<mask id="mask1_101_68" style="mask-type:luminance" maskUnits="userSpaceOnUse" x="571" y="117" width="18" height="18">
<path d="M580.308 134.774C584.946 134.774 588.706 131.014 588.706 126.376C588.706 121.737 584.946 117.978 580.308 117.978C575.67 117.978 571.91 121.737 571.91 126.376C571.91 131.014 575.67 134.774 580.308 134.774Z" fill="white"/>
</mask>
<g mask="url(#mask1_101_68)">
<path d="M588.581 118.023L572.711 134.764L575.07 137L590.94 120.26L588.581 118.023Z" fill="white"/>
</g>
<path d="M554.892 135.919C549.628 135.919 545.344 131.635 545.344 126.371C545.344 121.106 549.628 116.822 554.892 116.822C560.157 116.822 564.441 121.106 564.441 126.371C564.441 131.635 560.157 135.919 554.892 135.919ZM554.892 118.57C550.591 118.57 547.091 122.069 547.091 126.371C547.091 130.672 550.591 134.172 554.892 134.172C559.194 134.172 562.693 130.672 562.693 126.371C562.693 122.069 559.194 118.57 554.892 118.57Z" fill="#474747"/>
<path d="M548.966 127.243C548.482 127.243 548.09 126.851 548.09 126.367C548.09 122.619 551.14 119.568 554.888 119.568C555.372 119.568 555.764 119.961 555.764 120.444C555.764 120.928 555.372 121.32 554.888 121.32C552.104 121.32 549.837 123.587 549.837 126.371C549.837 126.855 549.445 127.247 548.961 127.247L548.966 127.243Z" fill="#474747"/>
<path d="M580.31 135.919C575.046 135.919 570.762 131.635 570.762 126.371C570.762 121.106 575.046 116.822 580.31 116.822C585.575 116.822 589.859 121.106 589.859 126.371C589.859 131.635 585.575 135.919 580.31 135.919ZM580.31 118.57C576.009 118.57 572.509 122.069 572.509 126.371C572.509 130.672 576.009 134.172 580.31 134.172C584.612 134.172 588.111 130.672 588.111 126.371C588.111 122.069 584.612 118.57 580.31 118.57Z" fill="#474747"/>
<path d="M574.513 127.243C574.029 127.243 573.637 126.851 573.637 126.367C573.637 122.619 576.687 119.568 580.435 119.568C580.919 119.568 581.311 119.961 581.311 120.444C581.311 120.928 580.919 121.32 580.435 121.32C577.65 121.32 575.384 123.587 575.384 126.371C575.384 126.855 574.992 127.247 574.508 127.247L574.513 127.243Z" fill="#474747"/>
<path d="M571.741 125.717C571.258 125.717 570.865 125.325 570.865 124.841C570.865 123.046 569.405 121.582 567.606 121.582C565.806 121.582 564.346 123.042 564.346 124.841C564.346 125.325 563.953 125.717 563.47 125.717C562.986 125.717 562.594 125.325 562.594 124.841C562.594 122.078 564.843 119.834 567.601 119.834C570.36 119.834 572.609 122.083 572.609 124.841C572.609 125.325 572.216 125.717 571.733 125.717H571.741Z" fill="#474747"/>
<path d="M546.219 125.719H543.325C542.841 125.719 542.449 125.327 542.449 124.843C542.449 124.359 542.841 123.967 543.325 123.967H546.219C546.703 123.967 547.095 124.359 547.095 124.843C547.095 125.327 546.703 125.719 546.219 125.719Z" fill="#474747"/>
<path d="M591.942 125.719H589.048C588.564 125.719 588.172 125.327 588.172 124.843C588.172 124.359 588.564 123.967 589.048 123.967H591.942C592.425 123.967 592.818 124.359 592.818 124.843C592.818 125.327 592.425 125.719 591.942 125.719Z" fill="#474747"/>
<path d="M166.054 188.219C183.63 170.644 183.63 142.147 166.054 124.572C148.478 106.996 119.982 106.996 102.406 124.572C84.8301 142.147 84.8301 170.644 102.406 188.219C119.982 205.795 148.478 205.795 166.054 188.219Z" fill="#51B0B0"/>
<path d="M161.61 183.58V153.322C161.61 150.921 159.662 148.973 157.261 148.973H129.67C127.268 148.973 125.32 150.921 125.32 153.322V174.607C125.32 177.008 127.268 178.956 129.67 178.956H151.708C152.754 178.956 153.77 179.322 154.576 179.985L159.906 184.378C160.586 184.936 161.606 184.456 161.606 183.576L161.61 183.58Z" fill="#EAEAEA"/>
<path d="M160.565 185.65C160.099 185.65 159.637 185.489 159.258 185.175L153.928 180.782C153.305 180.268 152.516 179.985 151.71 179.985H129.671C126.707 179.985 124.293 177.575 124.293 174.607V153.322C124.293 150.359 126.703 147.944 129.671 147.944H157.262C160.225 147.944 162.64 150.359 162.64 153.322V183.58C162.64 184.387 162.186 185.106 161.454 185.45C161.171 185.585 160.866 185.65 160.57 185.65H160.565ZM129.671 150.001C127.836 150.001 126.346 151.492 126.346 153.327V174.611C126.346 176.446 127.836 177.937 129.671 177.937H151.71C152.991 177.937 154.242 178.386 155.231 179.2L160.561 183.593L160.583 183.585V153.327C160.583 151.492 159.092 150.001 157.257 150.001H129.666H129.671Z" fill="#474747"/>
<path d="M154.852 153.919H132.007C130.64 153.919 129.531 155.026 129.531 156.392C129.531 157.758 130.64 158.865 132.007 158.865H154.852C156.219 158.865 157.327 157.758 157.327 156.392C157.327 155.026 156.219 153.919 154.852 153.919Z" fill="#51B0B0"/>
<path d="M154.852 160.822H132.007C130.64 160.822 129.531 161.93 129.531 163.295C129.531 164.661 130.64 165.769 132.007 165.769H154.852C156.219 165.769 157.327 164.661 157.327 163.295C157.327 161.93 156.219 160.822 154.852 160.822Z" fill="#51B0B0"/>
<path d="M148.41 167.726H132.007C130.64 167.726 129.531 168.833 129.531 170.199C129.531 171.565 130.64 172.672 132.007 172.672H148.41C149.778 172.672 150.886 171.565 150.886 170.199C150.886 168.833 149.778 167.726 148.41 167.726Z" fill="#51B0B0"/>
<path d="M106.051 163.567V133.309C106.051 130.908 107.999 128.96 110.4 128.96H137.991C140.392 128.96 142.34 130.908 142.34 133.309V154.594C142.34 156.995 140.392 158.944 137.991 158.944H115.952C114.906 158.944 113.891 159.31 113.085 159.972L107.755 164.365C107.075 164.923 106.055 164.443 106.055 163.563L106.051 163.567Z" fill="#FCFCFC"/>
<path d="M107.094 165.637C106.793 165.637 106.492 165.571 106.209 165.436C105.477 165.092 105.023 164.377 105.023 163.567V133.309C105.023 130.345 107.433 127.931 110.401 127.931H137.992C140.956 127.931 143.37 130.341 143.37 133.309V154.593C143.37 157.557 140.96 159.971 137.992 159.971H115.953C115.147 159.971 114.358 160.255 113.735 160.769L108.401 165.162C108.022 165.476 107.56 165.637 107.094 165.637ZM110.401 129.988C108.567 129.988 107.076 131.478 107.076 133.313V163.571V163.584L112.428 159.191C113.417 158.376 114.668 157.927 115.949 157.927H137.988C139.823 157.927 141.313 156.437 141.313 154.602V133.317C141.313 131.483 139.823 129.992 137.988 129.992H110.397L110.401 129.988Z" fill="#474747"/>
<path d="M130.746 140.745H116.721C115.354 140.745 114.246 141.852 114.246 143.218C114.246 144.584 115.354 145.692 116.721 145.692H130.746C132.113 145.692 133.221 144.584 133.221 143.218C133.221 141.852 132.113 140.745 130.746 140.745Z" fill="#51B0B0"/>
<path d="M126.207 150.227V136.203C126.207 134.836 125.1 133.728 123.734 133.728C122.368 133.728 121.261 134.836 121.261 136.203V150.227C121.261 151.594 122.368 152.703 123.734 152.703C125.1 152.703 126.207 151.594 126.207 150.227Z" fill="#51B0B0"/>
</svg>
